<svg width="2465" height="1223" viewBox="0 0 2465 1223" fill="none" xmlns="http://www.w3.org/2000/svg">
<rect width="2465" height="1223" fill="#FFCC33"/>
<path d="M910.66 649.723C916.066 649.723 921.949 650.041 928.309 650.677C934.669 651.207 940.87 652.373 946.912 654.175L945.322 670.234C940.658 670.128 935.199 670.022 928.945 669.916C922.691 669.81 916.543 669.757 910.501 669.757C907.533 669.757 904.989 669.863 902.869 670.075C900.855 670.181 899.212 670.605 897.94 671.347C896.668 671.983 895.767 672.99 895.237 674.368C894.707 675.746 894.442 677.654 894.442 680.092C894.442 683.802 895.29 686.505 896.986 688.201C898.788 689.897 901.809 691.434 906.049 692.812L927.196 699.649C935.994 702.617 942.089 706.645 945.481 711.733C948.873 716.821 950.569 723.499 950.569 731.767C950.569 738.021 949.827 743.215 948.343 747.349C946.859 751.483 944.527 754.716 941.347 757.048C938.167 759.38 933.98 761.023 928.786 761.977C923.592 763.037 917.232 763.567 909.706 763.567C906.102 763.567 900.961 763.302 894.283 762.772C887.605 762.348 879.973 761.182 871.387 759.274L872.977 742.102C879.231 742.208 884.637 742.367 889.195 742.579C893.859 742.685 897.834 742.791 901.12 742.897C904.406 742.897 907.268 742.897 909.706 742.897C913.946 742.897 917.232 742.632 919.564 742.102C922.002 741.572 923.698 740.512 924.652 738.922C925.606 737.332 926.083 735.053 926.083 732.085C926.083 729.541 925.712 727.527 924.97 726.043C924.334 724.453 923.221 723.234 921.631 722.386C920.147 721.432 918.08 720.584 915.43 719.842L893.17 712.21C884.796 709.136 878.86 705.108 875.362 700.126C871.864 695.144 870.115 688.572 870.115 680.41C870.115 674.05 870.857 668.909 872.341 664.987C873.931 660.959 876.316 657.832 879.496 655.606C882.782 653.38 886.969 651.843 892.057 650.995C897.251 650.147 903.452 649.723 910.66 649.723ZM1051.52 651.79L1022.9 695.992C1021.74 697.9 1020.47 699.543 1019.09 700.921C1017.71 702.299 1016.33 703.465 1014.95 704.419V704.896C1016.44 705.744 1018.03 707.016 1019.72 708.712C1021.42 710.408 1022.8 712.21 1023.86 714.118L1053.43 761.5H1026.24L992.376 704.101L1025.29 651.79H1051.52ZM988.719 651.79V682.795C988.719 686.399 988.454 690.003 987.924 693.607C987.394 697.105 986.546 700.55 985.38 703.942C986.228 707.228 986.97 710.62 987.606 714.118C988.348 717.51 988.719 720.69 988.719 723.658V761.5H964.551V651.79H988.719ZM1001.12 695.992V712.846H981.405V695.992H1001.12ZM1148.16 651.79L1111.12 726.679H1088.22L1051.01 651.79H1076.29L1094.74 692.176C1095.69 694.296 1096.49 696.575 1097.12 699.013C1097.76 701.451 1098.34 703.783 1098.87 706.009H1100.46C1101.1 703.783 1101.73 701.451 1102.37 699.013C1103.01 696.575 1103.75 694.296 1104.6 692.176L1122.88 651.79H1148.16ZM1111.75 711.892V761.5H1087.42V711.892H1111.75ZM1296.24 651.79L1278.27 754.822C1277.95 756.73 1277 758.32 1275.41 759.592C1273.82 760.864 1271.91 761.5 1269.69 761.5H1246.95C1244.83 761.5 1242.92 760.864 1241.23 759.592C1239.64 758.32 1238.68 756.677 1238.36 754.663L1226.12 683.272C1225.8 680.834 1225.48 678.449 1225.17 676.117C1224.85 673.679 1224.53 671.294 1224.21 668.962H1221.19C1220.98 671.294 1220.71 673.679 1220.4 676.117C1220.08 678.555 1219.76 680.94 1219.44 683.272L1207.2 754.663C1206.88 756.677 1205.87 758.32 1204.18 759.592C1202.59 760.864 1200.73 761.5 1198.61 761.5H1175.72C1173.6 761.5 1171.69 760.864 1169.99 759.592C1168.4 758.32 1167.45 756.73 1167.13 754.822L1149.16 651.79H1173.65L1185.1 728.11C1185.42 730.442 1185.68 732.933 1185.89 735.583C1186.11 738.233 1186.32 741.042 1186.53 744.01H1189.55C1189.97 741.466 1190.4 738.816 1190.82 736.06C1191.35 733.198 1191.78 730.548 1192.09 728.11L1204.18 659.263C1204.5 657.037 1205.45 655.235 1207.04 653.857C1208.63 652.479 1210.54 651.79 1212.76 651.79H1232.8C1235.02 651.79 1236.88 652.479 1238.36 653.857C1239.95 655.235 1240.91 657.037 1241.23 659.263L1253.47 728.269C1253.89 730.813 1254.32 733.463 1254.74 736.219C1255.16 738.869 1255.54 741.466 1255.85 744.01H1259.03C1259.25 741.466 1259.46 738.816 1259.67 736.06C1259.99 733.304 1260.25 730.76 1260.46 728.428L1271.75 651.79H1296.24ZM1355 651.79C1357.02 651.79 1358.77 652.373 1360.25 653.539C1361.84 654.705 1362.9 656.242 1363.43 658.15L1395.23 761.5H1370.43L1348.01 680.887C1347.58 679.085 1347.16 677.283 1346.74 675.481C1346.31 673.573 1345.94 671.771 1345.62 670.075H1341.33C1341.01 671.771 1340.64 673.573 1340.22 675.481C1339.9 677.283 1339.47 679.085 1338.94 680.887L1316.53 761.5H1291.56L1323.52 658.15C1324.05 656.242 1325.06 654.705 1326.54 653.539C1328.13 652.373 1329.93 651.79 1331.95 651.79H1355ZM1371.86 714.277V732.562H1314.94V714.277H1371.86ZM1445.53 650.2C1455.17 650.2 1462.96 651.207 1468.9 653.221C1474.94 655.129 1479.34 658.468 1482.1 663.238C1484.96 667.902 1486.39 674.421 1486.39 682.795C1486.39 687.883 1485.7 692.388 1484.32 696.31C1483.05 700.126 1480.88 703.2 1477.8 705.532C1474.73 707.864 1470.54 709.348 1465.24 709.984V710.779C1467.15 711.097 1469.11 711.839 1471.12 713.005C1473.24 714.171 1475.21 715.92 1477.01 718.252C1478.81 720.478 1480.13 723.499 1480.98 727.315L1490.52 761.5H1464.92L1456.5 728.11C1455.54 724.506 1454.11 722.015 1452.2 720.637C1450.4 719.259 1447.86 718.57 1444.57 718.57C1437.36 718.57 1431.27 718.57 1426.29 718.57C1421.41 718.464 1417.28 718.358 1413.88 718.252C1410.6 718.146 1407.63 718.04 1404.98 717.934L1405.46 700.285H1445.05C1449.29 700.285 1452.63 699.861 1455.07 699.013C1457.61 698.059 1459.36 696.416 1460.31 694.084C1461.37 691.752 1461.9 688.519 1461.9 684.385C1461.9 680.145 1461.37 676.912 1460.31 674.686C1459.36 672.354 1457.61 670.764 1455.07 669.916C1452.63 668.962 1449.29 668.485 1445.05 668.485C1435.08 668.485 1426.66 668.538 1419.77 668.644C1412.88 668.75 1408.16 668.909 1405.62 669.121L1403.23 651.79C1407.68 651.26 1411.87 650.889 1415.79 650.677C1419.71 650.465 1424.01 650.359 1428.67 650.359C1433.34 650.253 1438.95 650.2 1445.53 650.2ZM1427.24 651.79V761.5H1403.23V651.79H1427.24ZM1546.09 650.2C1554.78 650.2 1562.09 651.154 1568.03 653.062C1574.07 654.864 1578.89 657.885 1582.5 662.125C1586.21 666.365 1588.91 672.142 1590.61 679.456C1592.3 686.664 1593.15 695.727 1593.15 706.645C1593.15 717.563 1592.3 726.679 1590.61 733.993C1588.91 741.201 1586.21 746.925 1582.5 751.165C1578.89 755.405 1574.07 758.479 1568.03 760.387C1562.09 762.189 1554.78 763.09 1546.09 763.09C1537.71 763.09 1530.03 762.931 1523.03 762.613C1516.04 762.295 1509.36 761.924 1503 761.5L1513.17 743.533C1517.2 743.745 1521.97 743.957 1527.48 744.169C1533.1 744.275 1539.3 744.328 1546.09 744.328C1551.49 744.328 1555.73 743.268 1558.81 741.148C1561.99 738.922 1564.21 735.053 1565.49 729.541C1566.86 724.029 1567.55 716.397 1567.55 706.645C1567.55 696.893 1566.86 689.261 1565.49 683.749C1564.21 678.237 1561.99 674.368 1558.81 672.142C1555.73 669.916 1551.49 668.803 1546.09 668.803C1539.62 668.803 1533.84 668.856 1528.76 668.962C1523.67 668.962 1518.69 668.962 1513.81 668.962L1503 651.79C1509.36 651.366 1515.98 650.995 1522.87 650.677C1529.87 650.359 1537.61 650.2 1546.09 650.2ZM1527.33 651.79V761.5H1503V651.79H1527.33Z" fill="black"/>
<path d="M926.384 850.786V819.286H935.264V824.626H935.624C936.184 822.946 937.144 821.526 938.504 820.366C939.864 819.166 941.724 818.566 944.084 818.566C946.244 818.566 948.084 819.106 949.604 820.186C951.124 821.266 952.224 822.846 952.904 824.926H953.084C953.364 824.046 953.784 823.226 954.344 822.466C954.944 821.666 955.664 820.986 956.504 820.426C957.344 819.866 958.284 819.426 959.324 819.106C960.364 818.746 961.484 818.566 962.684 818.566C965.724 818.566 968.044 819.646 969.644 821.806C971.284 823.966 972.104 827.046 972.104 831.046V850.786H963.224V831.766C963.224 827.766 961.784 825.766 958.904 825.766C957.584 825.766 956.384 826.146 955.304 826.906C954.224 827.666 953.684 828.826 953.684 830.386V850.786H944.804V831.766C944.804 827.766 943.364 825.766 940.484 825.766C939.844 825.766 939.204 825.866 938.564 826.066C937.964 826.226 937.404 826.506 936.884 826.906C936.404 827.306 936.004 827.806 935.684 828.406C935.404 828.966 935.264 829.626 935.264 830.386V850.786H926.384ZM1003.28 850.786C1001.68 850.786 1000.34 850.286 999.257 849.286C998.217 848.286 997.557 846.946 997.277 845.266H996.917C996.437 847.306 995.377 848.866 993.737 849.946C992.097 850.986 990.077 851.506 987.677 851.506C984.517 851.506 982.097 850.666 980.417 848.986C978.737 847.306 977.897 845.086 977.897 842.326C977.897 839.006 979.097 836.546 981.497 834.946C983.937 833.306 987.237 832.486 991.397 832.486H996.377V830.506C996.377 828.986 995.977 827.786 995.177 826.906C994.377 825.986 993.037 825.526 991.157 825.526C989.397 825.526 987.997 825.906 986.957 826.666C985.917 827.426 985.057 828.286 984.377 829.246L979.097 824.566C980.377 822.686 981.977 821.226 983.897 820.186C985.857 819.106 988.497 818.566 991.817 818.566C996.297 818.566 999.657 819.546 1001.9 821.506C1004.14 823.466 1005.26 826.326 1005.26 830.086V843.886H1008.2V850.786H1003.28ZM990.977 845.326C992.457 845.326 993.717 845.006 994.757 844.366C995.837 843.726 996.377 842.686 996.377 841.246V837.526H992.057C988.577 837.526 986.837 838.706 986.837 841.066V841.966C986.837 843.126 987.197 843.986 987.917 844.546C988.637 845.066 989.657 845.326 990.977 845.326ZM1014.16 806.386H1023.04V832.606H1023.4L1027.3 826.786L1033.6 819.286H1043.44L1032.94 831.346L1044.64 850.786H1034.08L1027 837.466L1023.04 841.906V850.786H1014.16V806.386ZM1060.29 851.506C1057.89 851.506 1055.75 851.126 1053.87 850.366C1051.99 849.566 1050.39 848.466 1049.07 847.066C1047.79 845.626 1046.81 843.886 1046.13 841.846C1045.49 839.806 1045.17 837.526 1045.17 835.006C1045.17 832.526 1045.49 830.286 1046.13 828.286C1046.77 826.246 1047.71 824.506 1048.95 823.066C1050.23 821.626 1051.79 820.526 1053.63 819.766C1055.47 818.966 1057.57 818.566 1059.93 818.566C1062.53 818.566 1064.75 819.006 1066.59 819.886C1068.47 820.766 1069.99 821.946 1071.15 823.426C1072.35 824.906 1073.21 826.626 1073.73 828.586C1074.29 830.506 1074.57 832.526 1074.57 834.646V837.286H1054.35V837.766C1054.35 839.846 1054.91 841.506 1056.03 842.746C1057.15 843.946 1058.91 844.546 1061.31 844.546C1063.15 844.546 1064.65 844.186 1065.81 843.466C1066.97 842.706 1068.05 841.806 1069.05 840.766L1073.49 846.286C1072.09 847.926 1070.25 849.206 1067.97 850.126C1065.73 851.046 1063.17 851.506 1060.29 851.506ZM1060.11 825.106C1058.31 825.106 1056.89 825.706 1055.85 826.906C1054.85 828.066 1054.35 829.626 1054.35 831.586V832.066H1065.39V831.526C1065.39 829.606 1064.95 828.066 1064.07 826.906C1063.23 825.706 1061.91 825.106 1060.11 825.106ZM1114.28 819.286H1122.56L1110.44 855.646C1109.64 858.086 1108.5 859.886 1107.02 861.046C1105.58 862.206 1103.5 862.786 1100.78 862.786H1095.26V855.886H1101.2L1102.28 852.406L1091.24 819.286H1100.06L1104.68 833.986L1106.96 843.106H1107.32L1109.66 833.986L1114.28 819.286ZM1139.38 851.506C1137.06 851.506 1134.98 851.126 1133.14 850.366C1131.34 849.606 1129.8 848.506 1128.52 847.066C1127.28 845.626 1126.32 843.886 1125.64 841.846C1124.96 839.806 1124.62 837.526 1124.62 835.006C1124.62 832.486 1124.96 830.206 1125.64 828.166C1126.32 826.126 1127.28 824.406 1128.52 823.006C1129.8 821.566 1131.34 820.466 1133.14 819.706C1134.98 818.946 1137.06 818.566 1139.38 818.566C1141.7 818.566 1143.76 818.946 1145.56 819.706C1147.4 820.466 1148.94 821.566 1150.18 823.006C1151.46 824.406 1152.44 826.126 1153.12 828.166C1153.8 830.206 1154.14 832.486 1154.14 835.006C1154.14 837.526 1153.8 839.806 1153.12 841.846C1152.44 843.886 1151.46 845.626 1150.18 847.066C1148.94 848.506 1147.4 849.606 1145.56 850.366C1143.76 851.126 1141.7 851.506 1139.38 851.506ZM1139.38 844.486C1141.14 844.486 1142.5 843.946 1143.46 842.866C1144.42 841.786 1144.9 840.246 1144.9 838.246V831.826C1144.9 829.826 1144.42 828.286 1143.46 827.206C1142.5 826.126 1141.14 825.586 1139.38 825.586C1137.62 825.586 1136.26 826.126 1135.3 827.206C1134.34 828.286 1133.86 829.826 1133.86 831.826V838.246C1133.86 840.246 1134.34 841.786 1135.3 842.866C1136.26 843.946 1137.62 844.486 1139.38 844.486ZM1179.07 845.506H1178.77C1178.49 846.306 1178.11 847.066 1177.63 847.786C1177.19 848.506 1176.61 849.146 1175.89 849.706C1175.17 850.266 1174.31 850.706 1173.31 851.026C1172.35 851.346 1171.23 851.506 1169.95 851.506C1166.71 851.506 1164.25 850.446 1162.57 848.326C1160.93 846.166 1160.11 843.086 1160.11 839.086V819.286H1168.99V838.306C1168.99 840.226 1169.33 841.706 1170.01 842.746C1170.69 843.786 1171.85 844.306 1173.49 844.306C1174.17 844.306 1174.85 844.206 1175.53 844.006C1176.21 843.806 1176.81 843.526 1177.33 843.166C1177.85 842.766 1178.27 842.286 1178.59 841.726C1178.91 841.166 1179.07 840.506 1179.07 839.746V819.286H1187.95V850.786H1179.07V845.506ZM1196.21 850.786V819.286H1205.09V826.126H1205.39C1205.55 825.246 1205.83 824.406 1206.23 823.606C1206.63 822.766 1207.15 822.026 1207.79 821.386C1208.47 820.746 1209.27 820.246 1210.19 819.886C1211.11 819.486 1212.19 819.286 1213.43 819.286H1214.99V827.566H1212.77C1210.17 827.566 1208.23 827.906 1206.95 828.586C1205.71 829.266 1205.09 830.526 1205.09 832.366V850.786H1196.21ZM1247.43 851.506C1245.11 851.506 1243.03 851.126 1241.19 850.366C1239.39 849.606 1237.85 848.506 1236.57 847.066C1235.33 845.626 1234.37 843.886 1233.69 841.846C1233.01 839.806 1232.67 837.526 1232.67 835.006C1232.67 832.486 1233.01 830.206 1233.69 828.166C1234.37 826.126 1235.33 824.406 1236.57 823.006C1237.85 821.566 1239.39 820.466 1241.19 819.706C1243.03 818.946 1245.11 818.566 1247.43 818.566C1249.75 818.566 1251.81 818.946 1253.61 819.706C1255.45 820.466 1256.99 821.566 1258.23 823.006C1259.51 824.406 1260.49 826.126 1261.17 828.166C1261.85 830.206 1262.19 832.486 1262.19 835.006C1262.19 837.526 1261.85 839.806 1261.17 841.846C1260.49 843.886 1259.51 845.626 1258.23 847.066C1256.99 848.506 1255.45 849.606 1253.61 850.366C1251.81 851.126 1249.75 851.506 1247.43 851.506ZM1247.43 844.486C1249.19 844.486 1250.55 843.946 1251.51 842.866C1252.47 841.786 1252.95 840.246 1252.95 838.246V831.826C1252.95 829.826 1252.47 828.286 1251.51 827.206C1250.55 826.126 1249.19 825.586 1247.43 825.586C1245.67 825.586 1244.31 826.126 1243.35 827.206C1242.39 828.286 1241.91 829.826 1241.91 831.826V838.246C1241.91 840.246 1242.39 841.786 1243.35 842.866C1244.31 843.946 1245.67 844.486 1247.43 844.486ZM1264.93 819.286H1273.51L1276.57 832.006L1278.73 841.606H1278.97L1281.49 832.006L1285.09 819.286H1293.19L1296.85 832.006L1299.43 841.606H1299.67L1301.83 832.006L1304.89 819.286H1313.11L1304.41 850.786H1295.11L1291.27 837.466L1289.05 829.306H1288.87L1286.71 837.466L1282.87 850.786H1273.75L1264.93 819.286ZM1318.38 850.786V819.286H1327.26V824.626H1327.62C1328.18 822.986 1329.16 821.566 1330.56 820.366C1331.96 819.166 1333.9 818.566 1336.38 818.566C1339.62 818.566 1342.06 819.646 1343.7 821.806C1345.38 823.966 1346.22 827.046 1346.22 831.046V850.786H1337.34V831.766C1337.34 829.726 1337.02 828.226 1336.38 827.266C1335.74 826.266 1334.6 825.766 1332.96 825.766C1332.24 825.766 1331.54 825.866 1330.86 826.066C1330.18 826.226 1329.56 826.506 1329 826.906C1328.48 827.306 1328.06 827.806 1327.74 828.406C1327.42 828.966 1327.26 829.626 1327.26 830.386V850.786H1318.38ZM1368.3 819.286H1377.18V824.566H1377.48C1377.92 822.806 1378.92 821.366 1380.48 820.246C1382.08 819.126 1383.9 818.566 1385.94 818.566C1389.94 818.566 1392.96 819.966 1395 822.766C1397.04 825.566 1398.06 829.646 1398.06 835.006C1398.06 840.366 1397.04 844.466 1395 847.306C1392.96 850.106 1389.94 851.506 1385.94 851.506C1384.9 851.506 1383.92 851.346 1383 851.026C1382.08 850.746 1381.24 850.346 1380.48 849.826C1379.76 849.266 1379.14 848.626 1378.62 847.906C1378.1 847.146 1377.72 846.346 1377.48 845.506H1377.18V862.786H1368.3V819.286ZM1383 844.306C1384.68 844.306 1386.06 843.726 1387.14 842.566C1388.26 841.366 1388.82 839.766 1388.82 837.766V832.306C1388.82 830.306 1388.26 828.726 1387.14 827.566C1386.06 826.366 1384.68 825.766 1383 825.766C1381.32 825.766 1379.92 826.186 1378.8 827.026C1377.72 827.826 1377.18 828.946 1377.18 830.386V839.686C1377.18 841.126 1377.72 842.266 1378.8 843.106C1379.92 843.906 1381.32 844.306 1383 844.306ZM1417.58 851.506C1415.26 851.506 1413.18 851.126 1411.34 850.366C1409.54 849.606 1408 848.506 1406.72 847.066C1405.48 845.626 1404.52 843.886 1403.84 841.846C1403.16 839.806 1402.82 837.526 1402.82 835.006C1402.82 832.486 1403.16 830.206 1403.84 828.166C1404.52 826.126 1405.48 824.406 1406.72 823.006C1408 821.566 1409.54 820.466 1411.34 819.706C1413.18 818.946 1415.26 818.566 1417.58 818.566C1419.9 818.566 1421.96 818.946 1423.76 819.706C1425.6 820.466 1427.14 821.566 1428.38 823.006C1429.66 824.406 1430.64 826.126 1431.32 828.166C1432 830.206 1432.34 832.486 1432.34 835.006C1432.34 837.526 1432 839.806 1431.32 841.846C1430.64 843.886 1429.66 845.626 1428.38 847.066C1427.14 848.506 1425.6 849.606 1423.76 850.366C1421.96 851.126 1419.9 851.506 1417.58 851.506ZM1417.58 844.486C1419.34 844.486 1420.7 843.946 1421.66 842.866C1422.62 841.786 1423.1 840.246 1423.1 838.246V831.826C1423.1 829.826 1422.62 828.286 1421.66 827.206C1420.7 826.126 1419.34 825.586 1417.58 825.586C1415.82 825.586 1414.46 826.126 1413.5 827.206C1412.54 828.286 1412.06 829.826 1412.06 831.826V838.246C1412.06 840.246 1412.54 841.786 1413.5 842.866C1414.46 843.946 1415.82 844.486 1417.58 844.486ZM1435.08 819.286H1443.66L1446.72 832.006L1448.88 841.606H1449.12L1451.64 832.006L1455.24 819.286H1463.34L1467 832.006L1469.58 841.606H1469.82L1471.98 832.006L1475.04 819.286H1483.26L1474.56 850.786H1465.26L1461.42 837.466L1459.2 829.306H1459.02L1456.86 837.466L1453.02 850.786H1443.9L1435.08 819.286ZM1501.09 851.506C1498.69 851.506 1496.55 851.126 1494.67 850.366C1492.79 849.566 1491.19 848.466 1489.87 847.066C1488.59 845.626 1487.61 843.886 1486.93 841.846C1486.29 839.806 1485.97 837.526 1485.97 835.006C1485.97 832.526 1486.29 830.286 1486.93 828.286C1487.57 826.246 1488.51 824.506 1489.75 823.066C1491.03 821.626 1492.59 820.526 1494.43 819.766C1496.27 818.966 1498.37 818.566 1500.73 818.566C1503.33 818.566 1505.55 819.006 1507.39 819.886C1509.27 820.766 1510.79 821.946 1511.95 823.426C1513.15 824.906 1514.01 826.626 1514.53 828.586C1515.09 830.506 1515.37 832.526 1515.37 834.646V837.286H1495.15V837.766C1495.15 839.846 1495.71 841.506 1496.83 842.746C1497.95 843.946 1499.71 844.546 1502.11 844.546C1503.95 844.546 1505.45 844.186 1506.61 843.466C1507.77 842.706 1508.85 841.806 1509.85 840.766L1514.29 846.286C1512.89 847.926 1511.05 849.206 1508.77 850.126C1506.53 851.046 1503.97 851.506 1501.09 851.506ZM1500.91 825.106C1499.11 825.106 1497.69 825.706 1496.65 826.906C1495.65 828.066 1495.15 829.626 1495.15 831.586V832.066H1506.19V831.526C1506.19 829.606 1505.75 828.066 1504.87 826.906C1504.03 825.706 1502.71 825.106 1500.91 825.106ZM1521.64 850.786V819.286H1530.52V826.126H1530.82C1530.98 825.246 1531.26 824.406 1531.66 823.606C1532.06 822.766 1532.58 822.026 1533.22 821.386C1533.9 820.746 1534.7 820.246 1535.62 819.886C1536.54 819.486 1537.62 819.286 1538.86 819.286H1540.42V827.566H1538.2C1535.6 827.566 1533.66 827.906 1532.38 828.586C1531.14 829.266 1530.52 830.526 1530.52 832.366V850.786H1521.64Z" fill="black"/>
<path fill-rule="evenodd" clip-rule="evenodd" d="M1349.59 561.656L1232.5 407.758L1115.41 561.656H1141.64L1232.5 442.223L1323.37 561.656H1349.59Z" fill="black"/>
<path opacity="0.9" fill-rule="evenodd" clip-rule="evenodd" d="M1146.05 503.223C1127.02 482.403 1115.41 454.686 1115.41 424.259C1115.41 359.593 1167.84 307.172 1232.5 307.172C1297.17 307.172 1349.59 359.593 1349.59 424.259C1349.59 454.687 1337.98 482.404 1318.95 503.224L1307.84 488.62C1322.65 471.305 1331.59 448.826 1331.59 424.259C1331.59 369.535 1287.23 325.172 1232.5 325.172C1177.78 325.172 1133.41 369.535 1133.41 424.259C1133.41 448.826 1142.35 471.304 1157.16 488.619L1146.05 503.223Z" fill="black"/>
</svg>
