<svg width="2465" height="1223" viewBox="0 0 2465 1223" fill="none" xmlns="http://www.w3.org/2000/svg">
<rect width="2465" height="1223" fill="black"/>
<path d="M910.66 649.723C916.066 649.723 921.949 650.041 928.309 650.677C934.669 651.207 940.87 652.373 946.912 654.175L945.322 670.234C940.658 670.128 935.199 670.022 928.945 669.916C922.691 669.81 916.543 669.757 910.501 669.757C907.533 669.757 904.989 669.863 902.869 670.075C900.855 670.181 899.212 670.605 897.94 671.347C896.668 671.983 895.767 672.99 895.237 674.368C894.707 675.746 894.442 677.654 894.442 680.092C894.442 683.802 895.29 686.505 896.986 688.201C898.788 689.897 901.809 691.434 906.049 692.812L927.196 699.649C935.994 702.617 942.089 706.645 945.481 711.733C948.873 716.821 950.569 723.499 950.569 731.767C950.569 738.021 949.827 743.215 948.343 747.349C946.859 751.483 944.527 754.716 941.347 757.048C938.167 759.38 933.98 761.023 928.786 761.977C923.592 763.037 917.232 763.567 909.706 763.567C906.102 763.567 900.961 763.302 894.283 762.772C887.605 762.348 879.973 761.182 871.387 759.274L872.977 742.102C879.231 742.208 884.637 742.367 889.195 742.579C893.859 742.685 897.834 742.791 901.12 742.897C904.406 742.897 907.268 742.897 909.706 742.897C913.946 742.897 917.232 742.632 919.564 742.102C922.002 741.572 923.698 740.512 924.652 738.922C925.606 737.332 926.083 735.053 926.083 732.085C926.083 729.541 925.712 727.527 924.97 726.043C924.334 724.453 923.221 723.234 921.631 722.386C920.147 721.432 918.08 720.584 915.43 719.842L893.17 712.21C884.796 709.136 878.86 705.108 875.362 700.126C871.864 695.144 870.115 688.572 870.115 680.41C870.115 674.05 870.857 668.909 872.341 664.987C873.931 660.959 876.316 657.832 879.496 655.606C882.782 653.38 886.969 651.843 892.057 650.995C897.251 650.147 903.452 649.723 910.66 649.723ZM1051.52 651.79L1022.9 695.992C1021.74 697.9 1020.47 699.543 1019.09 700.921C1017.71 702.299 1016.33 703.465 1014.95 704.419V704.896C1016.44 705.744 1018.03 707.016 1019.72 708.712C1021.42 710.408 1022.8 712.21 1023.86 714.118L1053.43 761.5H1026.24L992.376 704.101L1025.29 651.79H1051.52ZM988.719 651.79V682.795C988.719 686.399 988.454 690.003 987.924 693.607C987.394 697.105 986.546 700.55 985.38 703.942C986.228 707.228 986.97 710.62 987.606 714.118C988.348 717.51 988.719 720.69 988.719 723.658V761.5H964.551V651.79H988.719ZM1001.12 695.992V712.846H981.405V695.992H1001.12ZM1148.16 651.79L1111.12 726.679H1088.22L1051.01 651.79H1076.29L1094.74 692.176C1095.69 694.296 1096.49 696.575 1097.12 699.013C1097.76 701.451 1098.34 703.783 1098.87 706.009H1100.46C1101.1 703.783 1101.73 701.451 1102.37 699.013C1103.01 696.575 1103.75 694.296 1104.6 692.176L1122.88 651.79H1148.16ZM1111.75 711.892V761.5H1087.42V711.892H1111.75ZM1296.24 651.79L1278.27 754.822C1277.95 756.73 1277 758.32 1275.41 759.592C1273.82 760.864 1271.91 761.5 1269.69 761.5H1246.95C1244.83 761.5 1242.92 760.864 1241.23 759.592C1239.64 758.32 1238.68 756.677 1238.36 754.663L1226.12 683.272C1225.8 680.834 1225.48 678.449 1225.17 676.117C1224.85 673.679 1224.53 671.294 1224.21 668.962H1221.19C1220.98 671.294 1220.71 673.679 1220.4 676.117C1220.08 678.555 1219.76 680.94 1219.44 683.272L1207.2 754.663C1206.88 756.677 1205.87 758.32 1204.18 759.592C1202.59 760.864 1200.73 761.5 1198.61 761.5H1175.72C1173.6 761.5 1171.69 760.864 1169.99 759.592C1168.4 758.32 1167.45 756.73 1167.13 754.822L1149.16 651.79H1173.65L1185.1 728.11C1185.42 730.442 1185.68 732.933 1185.89 735.583C1186.11 738.233 1186.32 741.042 1186.53 744.01H1189.55C1189.97 741.466 1190.4 738.816 1190.82 736.06C1191.35 733.198 1191.78 730.548 1192.09 728.11L1204.18 659.263C1204.5 657.037 1205.45 655.235 1207.04 653.857C1208.63 652.479 1210.54 651.79 1212.76 651.79H1232.8C1235.02 651.79 1236.88 652.479 1238.36 653.857C1239.95 655.235 1240.91 657.037 1241.23 659.263L1253.47 728.269C1253.89 730.813 1254.32 733.463 1254.74 736.219C1255.16 738.869 1255.54 741.466 1255.85 744.01H1259.03C1259.25 741.466 1259.46 738.816 1259.67 736.06C1259.99 733.304 1260.25 730.76 1260.46 728.428L1271.75 651.79H1296.24ZM1355 651.79C1357.02 651.79 1358.77 652.373 1360.25 653.539C1361.84 654.705 1362.9 656.242 1363.43 658.15L1395.23 761.5H1370.43L1348.01 680.887C1347.58 679.085 1347.16 677.283 1346.74 675.481C1346.31 673.573 1345.94 671.771 1345.62 670.075H1341.33C1341.01 671.771 1340.64 673.573 1340.22 675.481C1339.9 677.283 1339.47 679.085 1338.94 680.887L1316.53 761.5H1291.56L1323.52 658.15C1324.05 656.242 1325.06 654.705 1326.54 653.539C1328.13 652.373 1329.93 651.79 1331.95 651.79H1355ZM1371.86 714.277V732.562H1314.94V714.277H1371.86ZM1445.53 650.2C1455.17 650.2 1462.96 651.207 1468.9 653.221C1474.94 655.129 1479.34 658.468 1482.1 663.238C1484.96 667.902 1486.39 674.421 1486.39 682.795C1486.39 687.883 1485.7 692.388 1484.32 696.31C1483.05 700.126 1480.88 703.2 1477.8 705.532C1474.73 707.864 1470.54 709.348 1465.24 709.984V710.779C1467.15 711.097 1469.11 711.839 1471.12 713.005C1473.24 714.171 1475.21 715.92 1477.01 718.252C1478.81 720.478 1480.13 723.499 1480.98 727.315L1490.52 761.5H1464.92L1456.5 728.11C1455.54 724.506 1454.11 722.015 1452.2 720.637C1450.4 719.259 1447.86 718.57 1444.57 718.57C1437.36 718.57 1431.27 718.57 1426.29 718.57C1421.41 718.464 1417.28 718.358 1413.88 718.252C1410.6 718.146 1407.63 718.04 1404.98 717.934L1405.46 700.285H1445.05C1449.29 700.285 1452.63 699.861 1455.07 699.013C1457.61 698.059 1459.36 696.416 1460.31 694.084C1461.37 691.752 1461.9 688.519 1461.9 684.385C1461.9 680.145 1461.37 676.912 1460.31 674.686C1459.36 672.354 1457.61 670.764 1455.07 669.916C1452.63 668.962 1449.29 668.485 1445.05 668.485C1435.08 668.485 1426.66 668.538 1419.77 668.644C1412.88 668.75 1408.16 668.909 1405.62 669.121L1403.23 651.79C1407.68 651.26 1411.87 650.889 1415.79 650.677C1419.71 650.465 1424.01 650.359 1428.67 650.359C1433.34 650.253 1438.95 650.2 1445.53 650.2ZM1427.24 651.79V761.5H1403.23V651.79H1427.24ZM1546.09 650.2C1554.78 650.2 1562.09 651.154 1568.03 653.062C1574.07 654.864 1578.89 657.885 1582.5 662.125C1586.21 666.365 1588.91 672.142 1590.61 679.456C1592.3 686.664 1593.15 695.727 1593.15 706.645C1593.15 717.563 1592.3 726.679 1590.61 733.993C1588.91 741.201 1586.21 746.925 1582.5 751.165C1578.89 755.405 1574.07 758.479 1568.03 760.387C1562.09 762.189 1554.78 763.09 1546.09 763.09C1537.71 763.09 1530.03 762.931 1523.03 762.613C1516.04 762.295 1509.36 761.924 1503 761.5L1513.17 743.533C1517.2 743.745 1521.97 743.957 1527.48 744.169C1533.1 744.275 1539.3 744.328 1546.09 744.328C1551.49 744.328 1555.73 743.268 1558.81 741.148C1561.99 738.922 1564.21 735.053 1565.49 729.541C1566.86 724.029 1567.55 716.397 1567.55 706.645C1567.55 696.893 1566.86 689.261 1565.49 683.749C1564.21 678.237 1561.99 674.368 1558.81 672.142C1555.73 669.916 1551.49 668.803 1546.09 668.803C1539.62 668.803 1533.84 668.856 1528.76 668.962C1523.67 668.962 1518.69 668.962 1513.81 668.962L1503 651.79C1509.36 651.366 1515.98 650.995 1522.87 650.677C1529.87 650.359 1537.61 650.2 1546.09 650.2ZM1527.33 651.79V761.5H1503V651.79H1527.33Z" fill="white"/>
<path d="M926.384 850.787V819.287H935.264V824.627H935.624C936.184 822.947 937.144 821.527 938.504 820.367C939.864 819.167 941.724 818.567 944.084 818.567C946.244 818.567 948.084 819.107 949.604 820.187C951.124 821.267 952.224 822.847 952.904 824.927H953.084C953.364 824.047 953.784 823.227 954.344 822.467C954.944 821.667 955.664 820.987 956.504 820.427C957.344 819.867 958.284 819.427 959.324 819.107C960.364 818.747 961.484 818.567 962.684 818.567C965.724 818.567 968.044 819.647 969.644 821.807C971.284 823.967 972.104 827.047 972.104 831.047V850.787H963.224V831.767C963.224 827.767 961.784 825.767 958.904 825.767C957.584 825.767 956.384 826.147 955.304 826.907C954.224 827.667 953.684 828.827 953.684 830.387V850.787H944.804V831.767C944.804 827.767 943.364 825.767 940.484 825.767C939.844 825.767 939.204 825.867 938.564 826.067C937.964 826.227 937.404 826.507 936.884 826.907C936.404 827.307 936.004 827.807 935.684 828.407C935.404 828.967 935.264 829.627 935.264 830.387V850.787H926.384ZM1003.28 850.787C1001.68 850.787 1000.34 850.287 999.257 849.287C998.217 848.287 997.557 846.947 997.277 845.267H996.917C996.437 847.307 995.377 848.867 993.737 849.947C992.097 850.987 990.077 851.507 987.677 851.507C984.517 851.507 982.097 850.667 980.417 848.987C978.737 847.307 977.897 845.087 977.897 842.327C977.897 839.007 979.097 836.547 981.497 834.947C983.937 833.307 987.237 832.487 991.397 832.487H996.377V830.507C996.377 828.987 995.977 827.787 995.177 826.907C994.377 825.987 993.037 825.527 991.157 825.527C989.397 825.527 987.997 825.907 986.957 826.667C985.917 827.427 985.057 828.287 984.377 829.247L979.097 824.567C980.377 822.687 981.977 821.227 983.897 820.187C985.857 819.107 988.497 818.567 991.817 818.567C996.297 818.567 999.657 819.547 1001.9 821.507C1004.14 823.467 1005.26 826.327 1005.26 830.087V843.887H1008.2V850.787H1003.28ZM990.977 845.327C992.457 845.327 993.717 845.007 994.757 844.367C995.837 843.727 996.377 842.687 996.377 841.247V837.527H992.057C988.577 837.527 986.837 838.707 986.837 841.067V841.967C986.837 843.127 987.197 843.987 987.917 844.547C988.637 845.067 989.657 845.327 990.977 845.327ZM1014.16 806.387H1023.04V832.607H1023.4L1027.3 826.787L1033.6 819.287H1043.44L1032.94 831.347L1044.64 850.787H1034.08L1027 837.467L1023.04 841.907V850.787H1014.16V806.387ZM1060.29 851.507C1057.89 851.507 1055.75 851.127 1053.87 850.367C1051.99 849.567 1050.39 848.467 1049.07 847.067C1047.79 845.627 1046.81 843.887 1046.13 841.847C1045.49 839.807 1045.17 837.527 1045.17 835.007C1045.17 832.527 1045.49 830.287 1046.13 828.287C1046.77 826.247 1047.71 824.507 1048.95 823.067C1050.23 821.627 1051.79 820.527 1053.63 819.767C1055.47 818.967 1057.57 818.567 1059.93 818.567C1062.53 818.567 1064.75 819.007 1066.59 819.887C1068.47 820.767 1069.99 821.947 1071.15 823.427C1072.35 824.907 1073.21 826.627 1073.73 828.587C1074.29 830.507 1074.57 832.527 1074.57 834.647V837.287H1054.35V837.767C1054.35 839.847 1054.91 841.507 1056.03 842.747C1057.15 843.947 1058.91 844.547 1061.31 844.547C1063.15 844.547 1064.65 844.187 1065.81 843.467C1066.97 842.707 1068.05 841.807 1069.05 840.767L1073.49 846.287C1072.09 847.927 1070.25 849.207 1067.97 850.127C1065.73 851.047 1063.17 851.507 1060.29 851.507ZM1060.11 825.107C1058.31 825.107 1056.89 825.707 1055.85 826.907C1054.85 828.067 1054.35 829.627 1054.35 831.587V832.067H1065.39V831.527C1065.39 829.607 1064.95 828.067 1064.07 826.907C1063.23 825.707 1061.91 825.107 1060.11 825.107ZM1114.28 819.287H1122.56L1110.44 855.647C1109.64 858.087 1108.5 859.887 1107.02 861.047C1105.58 862.207 1103.5 862.787 1100.78 862.787H1095.26V855.887H1101.2L1102.28 852.407L1091.24 819.287H1100.06L1104.68 833.987L1106.96 843.107H1107.32L1109.66 833.987L1114.28 819.287ZM1139.38 851.507C1137.06 851.507 1134.98 851.127 1133.14 850.367C1131.34 849.607 1129.8 848.507 1128.52 847.067C1127.28 845.627 1126.32 843.887 1125.64 841.847C1124.96 839.807 1124.62 837.527 1124.62 835.007C1124.62 832.487 1124.96 830.207 1125.64 828.167C1126.32 826.127 1127.28 824.407 1128.52 823.007C1129.8 821.567 1131.34 820.467 1133.14 819.707C1134.98 818.947 1137.06 818.567 1139.38 818.567C1141.7 818.567 1143.76 818.947 1145.56 819.707C1147.4 820.467 1148.94 821.567 1150.18 823.007C1151.46 824.407 1152.44 826.127 1153.12 828.167C1153.8 830.207 1154.14 832.487 1154.14 835.007C1154.14 837.527 1153.8 839.807 1153.12 841.847C1152.44 843.887 1151.46 845.627 1150.18 847.067C1148.94 848.507 1147.4 849.607 1145.56 850.367C1143.76 851.127 1141.7 851.507 1139.38 851.507ZM1139.38 844.487C1141.14 844.487 1142.5 843.947 1143.46 842.867C1144.42 841.787 1144.9 840.247 1144.9 838.247V831.827C1144.9 829.827 1144.42 828.287 1143.46 827.207C1142.5 826.127 1141.14 825.587 1139.38 825.587C1137.62 825.587 1136.26 826.127 1135.3 827.207C1134.34 828.287 1133.86 829.827 1133.86 831.827V838.247C1133.86 840.247 1134.34 841.787 1135.3 842.867C1136.26 843.947 1137.62 844.487 1139.38 844.487ZM1179.07 845.507H1178.77C1178.49 846.307 1178.11 847.067 1177.63 847.787C1177.19 848.507 1176.61 849.147 1175.89 849.707C1175.17 850.267 1174.31 850.707 1173.31 851.027C1172.35 851.347 1171.23 851.507 1169.95 851.507C1166.71 851.507 1164.25 850.447 1162.57 848.327C1160.93 846.167 1160.11 843.087 1160.11 839.087V819.287H1168.99V838.307C1168.99 840.227 1169.33 841.707 1170.01 842.747C1170.69 843.787 1171.85 844.307 1173.49 844.307C1174.17 844.307 1174.85 844.207 1175.53 844.007C1176.21 843.807 1176.81 843.527 1177.33 843.167C1177.85 842.767 1178.27 842.287 1178.59 841.727C1178.91 841.167 1179.07 840.507 1179.07 839.747V819.287H1187.95V850.787H1179.07V845.507ZM1196.21 850.787V819.287H1205.09V826.127H1205.39C1205.55 825.247 1205.83 824.407 1206.23 823.607C1206.63 822.767 1207.15 822.027 1207.79 821.387C1208.47 820.747 1209.27 820.247 1210.19 819.887C1211.11 819.487 1212.19 819.287 1213.43 819.287H1214.99V827.567H1212.77C1210.17 827.567 1208.23 827.907 1206.95 828.587C1205.71 829.267 1205.09 830.527 1205.09 832.367V850.787H1196.21ZM1247.43 851.507C1245.11 851.507 1243.03 851.127 1241.19 850.367C1239.39 849.607 1237.85 848.507 1236.57 847.067C1235.33 845.627 1234.37 843.887 1233.69 841.847C1233.01 839.807 1232.67 837.527 1232.67 835.007C1232.67 832.487 1233.01 830.207 1233.69 828.167C1234.37 826.127 1235.33 824.407 1236.57 823.007C1237.85 821.567 1239.39 820.467 1241.19 819.707C1243.03 818.947 1245.11 818.567 1247.43 818.567C1249.75 818.567 1251.81 818.947 1253.61 819.707C1255.45 820.467 1256.99 821.567 1258.23 823.007C1259.51 824.407 1260.49 826.127 1261.17 828.167C1261.85 830.207 1262.19 832.487 1262.19 835.007C1262.19 837.527 1261.85 839.807 1261.17 841.847C1260.49 843.887 1259.51 845.627 1258.23 847.067C1256.99 848.507 1255.45 849.607 1253.61 850.367C1251.81 851.127 1249.75 851.507 1247.43 851.507ZM1247.43 844.487C1249.19 844.487 1250.55 843.947 1251.51 842.867C1252.47 841.787 1252.95 840.247 1252.95 838.247V831.827C1252.95 829.827 1252.47 828.287 1251.51 827.207C1250.55 826.127 1249.19 825.587 1247.43 825.587C1245.67 825.587 1244.31 826.127 1243.35 827.207C1242.39 828.287 1241.91 829.827 1241.91 831.827V838.247C1241.91 840.247 1242.39 841.787 1243.35 842.867C1244.31 843.947 1245.67 844.487 1247.43 844.487ZM1264.93 819.287H1273.51L1276.57 832.007L1278.73 841.607H1278.97L1281.49 832.007L1285.09 819.287H1293.19L1296.85 832.007L1299.43 841.607H1299.67L1301.83 832.007L1304.89 819.287H1313.11L1304.41 850.787H1295.11L1291.27 837.467L1289.05 829.307H1288.87L1286.71 837.467L1282.87 850.787H1273.75L1264.93 819.287ZM1318.38 850.787V819.287H1327.26V824.627H1327.62C1328.18 822.987 1329.16 821.567 1330.56 820.367C1331.96 819.167 1333.9 818.567 1336.38 818.567C1339.62 818.567 1342.06 819.647 1343.7 821.807C1345.38 823.967 1346.22 827.047 1346.22 831.047V850.787H1337.34V831.767C1337.34 829.727 1337.02 828.227 1336.38 827.267C1335.74 826.267 1334.6 825.767 1332.96 825.767C1332.24 825.767 1331.54 825.867 1330.86 826.067C1330.18 826.227 1329.56 826.507 1329 826.907C1328.48 827.307 1328.06 827.807 1327.74 828.407C1327.42 828.967 1327.26 829.627 1327.26 830.387V850.787H1318.38ZM1368.3 819.287H1377.18V824.567H1377.48C1377.92 822.807 1378.92 821.367 1380.48 820.247C1382.08 819.127 1383.9 818.567 1385.94 818.567C1389.94 818.567 1392.96 819.967 1395 822.767C1397.04 825.567 1398.06 829.647 1398.06 835.007C1398.06 840.367 1397.04 844.467 1395 847.307C1392.96 850.107 1389.94 851.507 1385.94 851.507C1384.9 851.507 1383.92 851.347 1383 851.027C1382.08 850.747 1381.24 850.347 1380.48 849.827C1379.76 849.267 1379.14 848.627 1378.62 847.907C1378.1 847.147 1377.72 846.347 1377.48 845.507H1377.18V862.787H1368.3V819.287ZM1383 844.307C1384.68 844.307 1386.06 843.727 1387.14 842.567C1388.26 841.367 1388.82 839.767 1388.82 837.767V832.307C1388.82 830.307 1388.26 828.727 1387.14 827.567C1386.06 826.367 1384.68 825.767 1383 825.767C1381.32 825.767 1379.92 826.187 1378.8 827.027C1377.72 827.827 1377.18 828.947 1377.18 830.387V839.687C1377.18 841.127 1377.72 842.267 1378.8 843.107C1379.92 843.907 1381.32 844.307 1383 844.307ZM1417.58 851.507C1415.26 851.507 1413.18 851.127 1411.34 850.367C1409.54 849.607 1408 848.507 1406.72 847.067C1405.48 845.627 1404.52 843.887 1403.84 841.847C1403.16 839.807 1402.82 837.527 1402.82 835.007C1402.82 832.487 1403.16 830.207 1403.84 828.167C1404.52 826.127 1405.48 824.407 1406.72 823.007C1408 821.567 1409.54 820.467 1411.34 819.707C1413.18 818.947 1415.26 818.567 1417.58 818.567C1419.9 818.567 1421.96 818.947 1423.76 819.707C1425.6 820.467 1427.14 821.567 1428.38 823.007C1429.66 824.407 1430.64 826.127 1431.32 828.167C1432 830.207 1432.34 832.487 1432.34 835.007C1432.34 837.527 1432 839.807 1431.32 841.847C1430.64 843.887 1429.66 845.627 1428.38 847.067C1427.14 848.507 1425.6 849.607 1423.76 850.367C1421.96 851.127 1419.9 851.507 1417.58 851.507ZM1417.58 844.487C1419.34 844.487 1420.7 843.947 1421.66 842.867C1422.62 841.787 1423.1 840.247 1423.1 838.247V831.827C1423.1 829.827 1422.62 828.287 1421.66 827.207C1420.7 826.127 1419.34 825.587 1417.58 825.587C1415.82 825.587 1414.46 826.127 1413.5 827.207C1412.54 828.287 1412.06 829.827 1412.06 831.827V838.247C1412.06 840.247 1412.54 841.787 1413.5 842.867C1414.46 843.947 1415.82 844.487 1417.58 844.487ZM1435.08 819.287H1443.66L1446.72 832.007L1448.88 841.607H1449.12L1451.64 832.007L1455.24 819.287H1463.34L1467 832.007L1469.58 841.607H1469.82L1471.98 832.007L1475.04 819.287H1483.26L1474.56 850.787H1465.26L1461.42 837.467L1459.2 829.307H1459.02L1456.86 837.467L1453.02 850.787H1443.9L1435.08 819.287ZM1501.09 851.507C1498.69 851.507 1496.55 851.127 1494.67 850.367C1492.79 849.567 1491.19 848.467 1489.87 847.067C1488.59 845.627 1487.61 843.887 1486.93 841.847C1486.29 839.807 1485.97 837.527 1485.97 835.007C1485.97 832.527 1486.29 830.287 1486.93 828.287C1487.57 826.247 1488.51 824.507 1489.75 823.067C1491.03 821.627 1492.59 820.527 1494.43 819.767C1496.27 818.967 1498.37 818.567 1500.73 818.567C1503.33 818.567 1505.55 819.007 1507.39 819.887C1509.27 820.767 1510.79 821.947 1511.95 823.427C1513.15 824.907 1514.01 826.627 1514.53 828.587C1515.09 830.507 1515.37 832.527 1515.37 834.647V837.287H1495.15V837.767C1495.15 839.847 1495.71 841.507 1496.83 842.747C1497.95 843.947 1499.71 844.547 1502.11 844.547C1503.95 844.547 1505.45 844.187 1506.61 843.467C1507.77 842.707 1508.85 841.807 1509.85 840.767L1514.29 846.287C1512.89 847.927 1511.05 849.207 1508.77 850.127C1506.53 851.047 1503.97 851.507 1501.09 851.507ZM1500.91 825.107C1499.11 825.107 1497.69 825.707 1496.65 826.907C1495.65 828.067 1495.15 829.627 1495.15 831.587V832.067H1506.19V831.527C1506.19 829.607 1505.75 828.067 1504.87 826.907C1504.03 825.707 1502.71 825.107 1500.91 825.107ZM1521.64 850.787V819.287H1530.52V826.127H1530.82C1530.98 825.247 1531.26 824.407 1531.66 823.607C1532.06 822.767 1532.58 822.027 1533.22 821.387C1533.9 820.747 1534.7 820.247 1535.62 819.887C1536.54 819.487 1537.62 819.287 1538.86 819.287H1540.42V827.567H1538.2C1535.6 827.567 1533.66 827.907 1532.38 828.587C1531.14 829.267 1530.52 830.527 1530.52 832.367V850.787H1521.64Z" fill="white"/>
<path fill-rule="evenodd" clip-rule="evenodd" d="M1349.59 561.656L1232.5 407.758L1115.41 561.656H1141.64L1232.5 442.223L1323.37 561.656H1349.59Z" fill="white"/>
<path opacity="0.9" fill-rule="evenodd" clip-rule="evenodd" d="M1146.05 503.223C1127.02 482.403 1115.41 454.686 1115.41 424.259C1115.41 359.593 1167.84 307.172 1232.5 307.172C1297.17 307.172 1349.59 359.593 1349.59 424.259C1349.59 454.687 1337.98 482.404 1318.95 503.224L1307.84 488.62C1322.65 471.305 1331.59 448.826 1331.59 424.259C1331.59 369.535 1287.23 325.172 1232.5 325.172C1177.78 325.172 1133.41 369.535 1133.41 424.259C1133.41 448.826 1142.35 471.304 1157.16 488.619L1146.05 503.223Z" fill="white"/>
</svg>
