<?xml version="1.0" encoding="UTF-8" standalone="no"?>
<svg
   width="2466"
   height="1223"
   viewBox="0 0 2466 1223"
   fill="none"
   version="1.1"
   id="svg5"
   sodipodi:docname="full logo - blue&amp;yellow on white - vertical - no background.svg"
   inkscape:version="1.3 (0e150ed6c4, 2023-07-21)"
   xmlns:inkscape="http://www.inkscape.org/namespaces/inkscape"
   xmlns:sodipodi="http://sodipodi.sourceforge.net/DTD/sodipodi-0.dtd"
   xmlns="http://www.w3.org/2000/svg"
   xmlns:svg="http://www.w3.org/2000/svg">
  <defs
     id="defs5" />
  <sodipodi:namedview
     id="namedview5"
     pagecolor="#ffffff"
     bordercolor="#000000"
     borderopacity="0.25"
     inkscape:showpageshadow="2"
     inkscape:pageopacity="0.0"
     inkscape:pagecheckerboard="0"
     inkscape:deskcolor="#d1d1d1"
     showgrid="false"
     inkscape:zoom="0.54906732"
     inkscape:cx="1233.9106"
     inkscape:cy="611.03619"
     inkscape:window-width="1920"
     inkscape:window-height="991"
     inkscape:window-x="-9"
     inkscape:window-y="-9"
     inkscape:window-maximized="1"
     inkscape:current-layer="svg5" />
  <path
     d="M911.16 649.723C916.566 649.723 922.449 650.041 928.809 650.677C935.169 651.207 941.37 652.373 947.412 654.175L945.822 670.234C941.158 670.128 935.699 670.022 929.445 669.916C923.191 669.81 917.043 669.757 911.001 669.757C908.033 669.757 905.489 669.863 903.369 670.075C901.355 670.181 899.712 670.605 898.44 671.347C897.168 671.983 896.267 672.99 895.737 674.368C895.207 675.746 894.942 677.654 894.942 680.092C894.942 683.802 895.79 686.505 897.486 688.201C899.288 689.897 902.309 691.434 906.549 692.812L927.696 699.649C936.494 702.617 942.589 706.645 945.981 711.733C949.373 716.821 951.069 723.499 951.069 731.767C951.069 738.021 950.327 743.215 948.843 747.349C947.359 751.483 945.027 754.716 941.847 757.048C938.667 759.38 934.48 761.023 929.286 761.977C924.092 763.037 917.732 763.567 910.206 763.567C906.602 763.567 901.461 763.302 894.783 762.772C888.105 762.348 880.473 761.182 871.887 759.274L873.477 742.102C879.731 742.208 885.137 742.367 889.695 742.579C894.359 742.685 898.334 742.791 901.62 742.897C904.906 742.897 907.768 742.897 910.206 742.897C914.446 742.897 917.732 742.632 920.064 742.102C922.502 741.572 924.198 740.512 925.152 738.922C926.106 737.332 926.583 735.053 926.583 732.085C926.583 729.541 926.212 727.527 925.47 726.043C924.834 724.453 923.721 723.234 922.131 722.386C920.647 721.432 918.58 720.584 915.93 719.842L893.67 712.21C885.296 709.136 879.36 705.108 875.862 700.126C872.364 695.144 870.615 688.572 870.615 680.41C870.615 674.05 871.357 668.909 872.841 664.987C874.431 660.959 876.816 657.832 879.996 655.606C883.282 653.38 887.469 651.843 892.557 650.995C897.751 650.147 903.952 649.723 911.16 649.723ZM1052.02 651.79L1023.4 695.992C1022.24 697.9 1020.97 699.543 1019.59 700.921C1018.21 702.299 1016.83 703.465 1015.45 704.419V704.896C1016.94 705.744 1018.53 707.016 1020.22 708.712C1021.92 710.408 1023.3 712.21 1024.36 714.118L1053.93 761.5H1026.74L992.876 704.101L1025.79 651.79H1052.02ZM989.219 651.79V682.795C989.219 686.399 988.954 690.003 988.424 693.607C987.894 697.105 987.046 700.55 985.88 703.942C986.728 707.228 987.47 710.62 988.106 714.118C988.848 717.51 989.219 720.69 989.219 723.658V761.5H965.051V651.79H989.219ZM1001.62 695.992V712.846H981.905V695.992H1001.62ZM1148.66 651.79L1111.62 726.679H1088.72L1051.51 651.79H1076.79L1095.24 692.176C1096.19 694.296 1096.99 696.575 1097.62 699.013C1098.26 701.451 1098.84 703.783 1099.37 706.009H1100.96C1101.6 703.783 1102.23 701.451 1102.87 699.013C1103.51 696.575 1104.25 694.296 1105.1 692.176L1123.38 651.79H1148.66ZM1112.25 711.892V761.5H1087.92V711.892H1112.25ZM1296.74 651.79L1278.77 754.822C1278.45 756.73 1277.5 758.32 1275.91 759.592C1274.32 760.864 1272.41 761.5 1270.19 761.5H1247.45C1245.33 761.5 1243.42 760.864 1241.73 759.592C1240.14 758.32 1239.18 756.677 1238.86 754.663L1226.62 683.272C1226.3 680.834 1225.98 678.449 1225.67 676.117C1225.35 673.679 1225.03 671.294 1224.71 668.962H1221.69C1221.48 671.294 1221.21 673.679 1220.9 676.117C1220.58 678.555 1220.26 680.94 1219.94 683.272L1207.7 754.663C1207.38 756.677 1206.37 758.32 1204.68 759.592C1203.09 760.864 1201.23 761.5 1199.11 761.5H1176.22C1174.1 761.5 1172.19 760.864 1170.49 759.592C1168.9 758.32 1167.95 756.73 1167.63 754.822L1149.66 651.79H1174.15L1185.6 728.11C1185.92 730.442 1186.18 732.933 1186.39 735.583C1186.61 738.233 1186.82 741.042 1187.03 744.01H1190.05C1190.47 741.466 1190.9 738.816 1191.32 736.06C1191.85 733.198 1192.28 730.548 1192.59 728.11L1204.68 659.263C1205 657.037 1205.95 655.235 1207.54 653.857C1209.13 652.479 1211.04 651.79 1213.26 651.79H1233.3C1235.52 651.79 1237.38 652.479 1238.86 653.857C1240.45 655.235 1241.41 657.037 1241.73 659.263L1253.97 728.269C1254.39 730.813 1254.82 733.463 1255.24 736.219C1255.66 738.869 1256.04 741.466 1256.35 744.01H1259.53C1259.75 741.466 1259.96 738.816 1260.17 736.06C1260.49 733.304 1260.75 730.76 1260.96 728.428L1272.25 651.79H1296.74ZM1355.5 651.79C1357.52 651.79 1359.27 652.373 1360.75 653.539C1362.34 654.705 1363.4 656.242 1363.93 658.15L1395.73 761.5H1370.93L1348.51 680.887C1348.08 679.085 1347.66 677.283 1347.24 675.481C1346.81 673.573 1346.44 671.771 1346.12 670.075H1341.83C1341.51 671.771 1341.14 673.573 1340.72 675.481C1340.4 677.283 1339.97 679.085 1339.44 680.887L1317.03 761.5H1292.06L1324.02 658.15C1324.55 656.242 1325.56 654.705 1327.04 653.539C1328.63 652.373 1330.43 651.79 1332.45 651.79H1355.5ZM1372.36 714.277V732.562H1315.44V714.277H1372.36ZM1446.03 650.2C1455.67 650.2 1463.46 651.207 1469.4 653.221C1475.44 655.129 1479.84 658.468 1482.6 663.238C1485.46 667.902 1486.89 674.421 1486.89 682.795C1486.89 687.883 1486.2 692.388 1484.82 696.31C1483.55 700.126 1481.38 703.2 1478.3 705.532C1475.23 707.864 1471.04 709.348 1465.74 709.984V710.779C1467.65 711.097 1469.61 711.839 1471.62 713.005C1473.74 714.171 1475.71 715.92 1477.51 718.252C1479.31 720.478 1480.63 723.499 1481.48 727.315L1491.02 761.5H1465.42L1457 728.11C1456.04 724.506 1454.61 722.015 1452.7 720.637C1450.9 719.259 1448.36 718.57 1445.07 718.57C1437.86 718.57 1431.77 718.57 1426.79 718.57C1421.91 718.464 1417.78 718.358 1414.38 718.252C1411.1 718.146 1408.13 718.04 1405.48 717.934L1405.96 700.285H1445.55C1449.79 700.285 1453.13 699.861 1455.57 699.013C1458.11 698.059 1459.86 696.416 1460.81 694.084C1461.87 691.752 1462.4 688.519 1462.4 684.385C1462.4 680.145 1461.87 676.912 1460.81 674.686C1459.86 672.354 1458.11 670.764 1455.57 669.916C1453.13 668.962 1449.79 668.485 1445.55 668.485C1435.58 668.485 1427.16 668.538 1420.27 668.644C1413.38 668.75 1408.66 668.909 1406.12 669.121L1403.73 651.79C1408.18 651.26 1412.37 650.889 1416.29 650.677C1420.21 650.465 1424.51 650.359 1429.17 650.359C1433.84 650.253 1439.45 650.2 1446.03 650.2ZM1427.74 651.79V761.5H1403.73V651.79H1427.74ZM1546.59 650.2C1555.28 650.2 1562.59 651.154 1568.53 653.062C1574.57 654.864 1579.39 657.885 1583 662.125C1586.71 666.365 1589.41 672.142 1591.11 679.456C1592.8 686.664 1593.65 695.727 1593.65 706.645C1593.65 717.563 1592.8 726.679 1591.11 733.993C1589.41 741.201 1586.71 746.925 1583 751.165C1579.39 755.405 1574.57 758.479 1568.53 760.387C1562.59 762.189 1555.28 763.09 1546.59 763.09C1538.21 763.09 1530.53 762.931 1523.53 762.613C1516.54 762.295 1509.86 761.924 1503.5 761.5L1513.67 743.533C1517.7 743.745 1522.47 743.957 1527.98 744.169C1533.6 744.275 1539.8 744.328 1546.59 744.328C1551.99 744.328 1556.23 743.268 1559.31 741.148C1562.49 738.922 1564.71 735.053 1565.99 729.541C1567.36 724.029 1568.05 716.397 1568.05 706.645C1568.05 696.893 1567.36 689.261 1565.99 683.749C1564.71 678.237 1562.49 674.368 1559.31 672.142C1556.23 669.916 1551.99 668.803 1546.59 668.803C1540.12 668.803 1534.34 668.856 1529.26 668.962C1524.17 668.962 1519.19 668.962 1514.31 668.962L1503.5 651.79C1509.86 651.366 1516.48 650.995 1523.37 650.677C1530.37 650.359 1538.11 650.2 1546.59 650.2ZM1527.83 651.79V761.5H1503.5V651.79H1527.83Z"
     fill="black"
     id="path2" />
  <path
     d="M926.884 850.786V819.286H935.764V824.626H936.124C936.684 822.946 937.644 821.526 939.004 820.366C940.364 819.166 942.224 818.566 944.584 818.566C946.744 818.566 948.584 819.106 950.104 820.186C951.624 821.266 952.724 822.846 953.404 824.926H953.584C953.864 824.046 954.284 823.226 954.844 822.466C955.444 821.666 956.164 820.986 957.004 820.426C957.844 819.866 958.784 819.426 959.824 819.106C960.864 818.746 961.984 818.566 963.184 818.566C966.224 818.566 968.544 819.646 970.144 821.806C971.784 823.966 972.604 827.046 972.604 831.046V850.786H963.724V831.766C963.724 827.766 962.284 825.766 959.404 825.766C958.084 825.766 956.884 826.146 955.804 826.906C954.724 827.666 954.184 828.826 954.184 830.386V850.786H945.304V831.766C945.304 827.766 943.864 825.766 940.984 825.766C940.344 825.766 939.704 825.866 939.064 826.066C938.464 826.226 937.904 826.506 937.384 826.906C936.904 827.306 936.504 827.806 936.184 828.406C935.904 828.966 935.764 829.626 935.764 830.386V850.786H926.884ZM1003.78 850.786C1002.18 850.786 1000.84 850.286 999.757 849.286C998.717 848.286 998.057 846.946 997.777 845.266H997.417C996.937 847.306 995.877 848.866 994.237 849.946C992.597 850.986 990.577 851.506 988.177 851.506C985.017 851.506 982.597 850.666 980.917 848.986C979.237 847.306 978.397 845.086 978.397 842.326C978.397 839.006 979.597 836.546 981.997 834.946C984.437 833.306 987.737 832.486 991.897 832.486H996.877V830.506C996.877 828.986 996.477 827.786 995.677 826.906C994.877 825.986 993.537 825.526 991.657 825.526C989.897 825.526 988.497 825.906 987.457 826.666C986.417 827.426 985.557 828.286 984.877 829.246L979.597 824.566C980.877 822.686 982.477 821.226 984.397 820.186C986.357 819.106 988.997 818.566 992.317 818.566C996.797 818.566 1000.16 819.546 1002.4 821.506C1004.64 823.466 1005.76 826.326 1005.76 830.086V843.886H1008.7V850.786H1003.78ZM991.477 845.326C992.957 845.326 994.217 845.006 995.257 844.366C996.337 843.726 996.877 842.686 996.877 841.246V837.526H992.557C989.077 837.526 987.337 838.706 987.337 841.066V841.966C987.337 843.126 987.697 843.986 988.417 844.546C989.137 845.066 990.157 845.326 991.477 845.326ZM1014.66 806.386H1023.54V832.606H1023.9L1027.8 826.786L1034.1 819.286H1043.94L1033.44 831.346L1045.14 850.786H1034.58L1027.5 837.466L1023.54 841.906V850.786H1014.66V806.386ZM1060.79 851.506C1058.39 851.506 1056.25 851.126 1054.37 850.366C1052.49 849.566 1050.89 848.466 1049.57 847.066C1048.29 845.626 1047.31 843.886 1046.63 841.846C1045.99 839.806 1045.67 837.526 1045.67 835.006C1045.67 832.526 1045.99 830.286 1046.63 828.286C1047.27 826.246 1048.21 824.506 1049.45 823.066C1050.73 821.626 1052.29 820.526 1054.13 819.766C1055.97 818.966 1058.07 818.566 1060.43 818.566C1063.03 818.566 1065.25 819.006 1067.09 819.886C1068.97 820.766 1070.49 821.946 1071.65 823.426C1072.85 824.906 1073.71 826.626 1074.23 828.586C1074.79 830.506 1075.07 832.526 1075.07 834.646V837.286H1054.85V837.766C1054.85 839.846 1055.41 841.506 1056.53 842.746C1057.65 843.946 1059.41 844.546 1061.81 844.546C1063.65 844.546 1065.15 844.186 1066.31 843.466C1067.47 842.706 1068.55 841.806 1069.55 840.766L1073.99 846.286C1072.59 847.926 1070.75 849.206 1068.47 850.126C1066.23 851.046 1063.67 851.506 1060.79 851.506ZM1060.61 825.106C1058.81 825.106 1057.39 825.706 1056.35 826.906C1055.35 828.066 1054.85 829.626 1054.85 831.586V832.066H1065.89V831.526C1065.89 829.606 1065.45 828.066 1064.57 826.906C1063.73 825.706 1062.41 825.106 1060.61 825.106ZM1114.78 819.286H1123.06L1110.94 855.646C1110.14 858.086 1109 859.886 1107.52 861.046C1106.08 862.206 1104 862.786 1101.28 862.786H1095.76V855.886H1101.7L1102.78 852.406L1091.74 819.286H1100.56L1105.18 833.986L1107.46 843.106H1107.82L1110.16 833.986L1114.78 819.286ZM1139.88 851.506C1137.56 851.506 1135.48 851.126 1133.64 850.366C1131.84 849.606 1130.3 848.506 1129.02 847.066C1127.78 845.626 1126.82 843.886 1126.14 841.846C1125.46 839.806 1125.12 837.526 1125.12 835.006C1125.12 832.486 1125.46 830.206 1126.14 828.166C1126.82 826.126 1127.78 824.406 1129.02 823.006C1130.3 821.566 1131.84 820.466 1133.64 819.706C1135.48 818.946 1137.56 818.566 1139.88 818.566C1142.2 818.566 1144.26 818.946 1146.06 819.706C1147.9 820.466 1149.44 821.566 1150.68 823.006C1151.96 824.406 1152.94 826.126 1153.62 828.166C1154.3 830.206 1154.64 832.486 1154.64 835.006C1154.64 837.526 1154.3 839.806 1153.62 841.846C1152.94 843.886 1151.96 845.626 1150.68 847.066C1149.44 848.506 1147.9 849.606 1146.06 850.366C1144.26 851.126 1142.2 851.506 1139.88 851.506ZM1139.88 844.486C1141.64 844.486 1143 843.946 1143.96 842.866C1144.92 841.786 1145.4 840.246 1145.4 838.246V831.826C1145.4 829.826 1144.92 828.286 1143.96 827.206C1143 826.126 1141.64 825.586 1139.88 825.586C1138.12 825.586 1136.76 826.126 1135.8 827.206C1134.84 828.286 1134.36 829.826 1134.36 831.826V838.246C1134.36 840.246 1134.84 841.786 1135.8 842.866C1136.76 843.946 1138.12 844.486 1139.88 844.486ZM1179.57 845.506H1179.27C1178.99 846.306 1178.61 847.066 1178.13 847.786C1177.69 848.506 1177.11 849.146 1176.39 849.706C1175.67 850.266 1174.81 850.706 1173.81 851.026C1172.85 851.346 1171.73 851.506 1170.45 851.506C1167.21 851.506 1164.75 850.446 1163.07 848.326C1161.43 846.166 1160.61 843.086 1160.61 839.086V819.286H1169.49V838.306C1169.49 840.226 1169.83 841.706 1170.51 842.746C1171.19 843.786 1172.35 844.306 1173.99 844.306C1174.67 844.306 1175.35 844.206 1176.03 844.006C1176.71 843.806 1177.31 843.526 1177.83 843.166C1178.35 842.766 1178.77 842.286 1179.09 841.726C1179.41 841.166 1179.57 840.506 1179.57 839.746V819.286H1188.45V850.786H1179.57V845.506ZM1196.71 850.786V819.286H1205.59V826.126H1205.89C1206.05 825.246 1206.33 824.406 1206.73 823.606C1207.13 822.766 1207.65 822.026 1208.29 821.386C1208.97 820.746 1209.77 820.246 1210.69 819.886C1211.61 819.486 1212.69 819.286 1213.93 819.286H1215.49V827.566H1213.27C1210.67 827.566 1208.73 827.906 1207.45 828.586C1206.21 829.266 1205.59 830.526 1205.59 832.366V850.786H1196.71ZM1247.93 851.506C1245.61 851.506 1243.53 851.126 1241.69 850.366C1239.89 849.606 1238.35 848.506 1237.07 847.066C1235.83 845.626 1234.87 843.886 1234.19 841.846C1233.51 839.806 1233.17 837.526 1233.17 835.006C1233.17 832.486 1233.51 830.206 1234.19 828.166C1234.87 826.126 1235.83 824.406 1237.07 823.006C1238.35 821.566 1239.89 820.466 1241.69 819.706C1243.53 818.946 1245.61 818.566 1247.93 818.566C1250.25 818.566 1252.31 818.946 1254.11 819.706C1255.95 820.466 1257.49 821.566 1258.73 823.006C1260.01 824.406 1260.99 826.126 1261.67 828.166C1262.35 830.206 1262.69 832.486 1262.69 835.006C1262.69 837.526 1262.35 839.806 1261.67 841.846C1260.99 843.886 1260.01 845.626 1258.73 847.066C1257.49 848.506 1255.95 849.606 1254.11 850.366C1252.31 851.126 1250.25 851.506 1247.93 851.506ZM1247.93 844.486C1249.69 844.486 1251.05 843.946 1252.01 842.866C1252.97 841.786 1253.45 840.246 1253.45 838.246V831.826C1253.45 829.826 1252.97 828.286 1252.01 827.206C1251.05 826.126 1249.69 825.586 1247.93 825.586C1246.17 825.586 1244.81 826.126 1243.85 827.206C1242.89 828.286 1242.41 829.826 1242.41 831.826V838.246C1242.41 840.246 1242.89 841.786 1243.85 842.866C1244.81 843.946 1246.17 844.486 1247.93 844.486ZM1265.43 819.286H1274.01L1277.07 832.006L1279.23 841.606H1279.47L1281.99 832.006L1285.59 819.286H1293.69L1297.35 832.006L1299.93 841.606H1300.17L1302.33 832.006L1305.39 819.286H1313.61L1304.91 850.786H1295.61L1291.77 837.466L1289.55 829.306H1289.37L1287.21 837.466L1283.37 850.786H1274.25L1265.43 819.286ZM1318.88 850.786V819.286H1327.76V824.626H1328.12C1328.68 822.986 1329.66 821.566 1331.06 820.366C1332.46 819.166 1334.4 818.566 1336.88 818.566C1340.12 818.566 1342.56 819.646 1344.2 821.806C1345.88 823.966 1346.72 827.046 1346.72 831.046V850.786H1337.84V831.766C1337.84 829.726 1337.52 828.226 1336.88 827.266C1336.24 826.266 1335.1 825.766 1333.46 825.766C1332.74 825.766 1332.04 825.866 1331.36 826.066C1330.68 826.226 1330.06 826.506 1329.5 826.906C1328.98 827.306 1328.56 827.806 1328.24 828.406C1327.92 828.966 1327.76 829.626 1327.76 830.386V850.786H1318.88ZM1368.8 819.286H1377.68V824.566H1377.98C1378.42 822.806 1379.42 821.366 1380.98 820.246C1382.58 819.126 1384.4 818.566 1386.44 818.566C1390.44 818.566 1393.46 819.966 1395.5 822.766C1397.54 825.566 1398.56 829.646 1398.56 835.006C1398.56 840.366 1397.54 844.466 1395.5 847.306C1393.46 850.106 1390.44 851.506 1386.44 851.506C1385.4 851.506 1384.42 851.346 1383.5 851.026C1382.58 850.746 1381.74 850.346 1380.98 849.826C1380.26 849.266 1379.64 848.626 1379.12 847.906C1378.6 847.146 1378.22 846.346 1377.98 845.506H1377.68V862.786H1368.8V819.286ZM1383.5 844.306C1385.18 844.306 1386.56 843.726 1387.64 842.566C1388.76 841.366 1389.32 839.766 1389.32 837.766V832.306C1389.32 830.306 1388.76 828.726 1387.64 827.566C1386.56 826.366 1385.18 825.766 1383.5 825.766C1381.82 825.766 1380.42 826.186 1379.3 827.026C1378.22 827.826 1377.68 828.946 1377.68 830.386V839.686C1377.68 841.126 1378.22 842.266 1379.3 843.106C1380.42 843.906 1381.82 844.306 1383.5 844.306ZM1418.08 851.506C1415.76 851.506 1413.68 851.126 1411.84 850.366C1410.04 849.606 1408.5 848.506 1407.22 847.066C1405.98 845.626 1405.02 843.886 1404.34 841.846C1403.66 839.806 1403.32 837.526 1403.32 835.006C1403.32 832.486 1403.66 830.206 1404.34 828.166C1405.02 826.126 1405.98 824.406 1407.22 823.006C1408.5 821.566 1410.04 820.466 1411.84 819.706C1413.68 818.946 1415.76 818.566 1418.08 818.566C1420.4 818.566 1422.46 818.946 1424.26 819.706C1426.1 820.466 1427.64 821.566 1428.88 823.006C1430.16 824.406 1431.14 826.126 1431.82 828.166C1432.5 830.206 1432.84 832.486 1432.84 835.006C1432.84 837.526 1432.5 839.806 1431.82 841.846C1431.14 843.886 1430.16 845.626 1428.88 847.066C1427.64 848.506 1426.1 849.606 1424.26 850.366C1422.46 851.126 1420.4 851.506 1418.08 851.506ZM1418.08 844.486C1419.84 844.486 1421.2 843.946 1422.16 842.866C1423.12 841.786 1423.6 840.246 1423.6 838.246V831.826C1423.6 829.826 1423.12 828.286 1422.16 827.206C1421.2 826.126 1419.84 825.586 1418.08 825.586C1416.32 825.586 1414.96 826.126 1414 827.206C1413.04 828.286 1412.56 829.826 1412.56 831.826V838.246C1412.56 840.246 1413.04 841.786 1414 842.866C1414.96 843.946 1416.32 844.486 1418.08 844.486ZM1435.58 819.286H1444.16L1447.22 832.006L1449.38 841.606H1449.62L1452.14 832.006L1455.74 819.286H1463.84L1467.5 832.006L1470.08 841.606H1470.32L1472.48 832.006L1475.54 819.286H1483.76L1475.06 850.786H1465.76L1461.92 837.466L1459.7 829.306H1459.52L1457.36 837.466L1453.52 850.786H1444.4L1435.58 819.286ZM1501.59 851.506C1499.19 851.506 1497.05 851.126 1495.17 850.366C1493.29 849.566 1491.69 848.466 1490.37 847.066C1489.09 845.626 1488.11 843.886 1487.43 841.846C1486.79 839.806 1486.47 837.526 1486.47 835.006C1486.47 832.526 1486.79 830.286 1487.43 828.286C1488.07 826.246 1489.01 824.506 1490.25 823.066C1491.53 821.626 1493.09 820.526 1494.93 819.766C1496.77 818.966 1498.87 818.566 1501.23 818.566C1503.83 818.566 1506.05 819.006 1507.89 819.886C1509.77 820.766 1511.29 821.946 1512.45 823.426C1513.65 824.906 1514.51 826.626 1515.03 828.586C1515.59 830.506 1515.87 832.526 1515.87 834.646V837.286H1495.65V837.766C1495.65 839.846 1496.21 841.506 1497.33 842.746C1498.45 843.946 1500.21 844.546 1502.61 844.546C1504.45 844.546 1505.95 844.186 1507.11 843.466C1508.27 842.706 1509.35 841.806 1510.35 840.766L1514.79 846.286C1513.39 847.926 1511.55 849.206 1509.27 850.126C1507.03 851.046 1504.47 851.506 1501.59 851.506ZM1501.41 825.106C1499.61 825.106 1498.19 825.706 1497.15 826.906C1496.15 828.066 1495.65 829.626 1495.65 831.586V832.066H1506.69V831.526C1506.69 829.606 1506.25 828.066 1505.37 826.906C1504.53 825.706 1503.21 825.106 1501.41 825.106ZM1522.14 850.786V819.286H1531.02V826.126H1531.32C1531.48 825.246 1531.76 824.406 1532.16 823.606C1532.56 822.766 1533.08 822.026 1533.72 821.386C1534.4 820.746 1535.2 820.246 1536.12 819.886C1537.04 819.486 1538.12 819.286 1539.36 819.286H1540.92V827.566H1538.7C1536.1 827.566 1534.16 827.906 1532.88 828.586C1531.64 829.266 1531.02 830.526 1531.02 832.366V850.786H1522.14Z"
     fill="black"
     id="path3" />
  <path
     fill-rule="evenodd"
     clip-rule="evenodd"
     d="M1350.09 561.656L1233 407.758L1115.91 561.656H1142.14L1233 442.223L1323.87 561.656H1350.09Z"
     fill="#0099FF"
     id="path4" />
  <path
     opacity="0.9"
     fill-rule="evenodd"
     clip-rule="evenodd"
     d="M1146.55 503.223C1127.52 482.403 1115.91 454.686 1115.91 424.259C1115.91 359.593 1168.34 307.172 1233 307.172C1297.67 307.172 1350.09 359.593 1350.09 424.259C1350.09 454.687 1338.48 482.404 1319.45 503.224L1308.34 488.62C1323.15 471.305 1332.09 448.826 1332.09 424.259C1332.09 369.535 1287.73 325.172 1233 325.172C1178.28 325.172 1133.91 369.535 1133.91 424.259C1133.91 448.826 1142.85 471.304 1157.66 488.619L1146.55 503.223Z"
     fill="#FFCC33"
     id="path5" />
</svg>
