<svg width="2466" height="1223" viewBox="0 0 2466 1223" fill="none" xmlns="http://www.w3.org/2000/svg">
<rect width="2465" height="1223" transform="translate(0.5)" fill="white"/>
<path d="M911.16 649.723C916.566 649.723 922.449 650.041 928.809 650.677C935.169 651.207 941.37 652.373 947.412 654.175L945.822 670.234C941.158 670.128 935.699 670.022 929.445 669.916C923.191 669.81 917.043 669.757 911.001 669.757C908.033 669.757 905.489 669.863 903.369 670.075C901.355 670.181 899.712 670.605 898.44 671.347C897.168 671.983 896.267 672.99 895.737 674.368C895.207 675.746 894.942 677.654 894.942 680.092C894.942 683.802 895.79 686.505 897.486 688.201C899.288 689.897 902.309 691.434 906.549 692.812L927.696 699.649C936.494 702.617 942.589 706.645 945.981 711.733C949.373 716.821 951.069 723.499 951.069 731.767C951.069 738.021 950.327 743.215 948.843 747.349C947.359 751.483 945.027 754.716 941.847 757.048C938.667 759.38 934.48 761.023 929.286 761.977C924.092 763.037 917.732 763.567 910.206 763.567C906.602 763.567 901.461 763.302 894.783 762.772C888.105 762.348 880.473 761.182 871.887 759.274L873.477 742.102C879.731 742.208 885.137 742.367 889.695 742.579C894.359 742.685 898.334 742.791 901.62 742.897C904.906 742.897 907.768 742.897 910.206 742.897C914.446 742.897 917.732 742.632 920.064 742.102C922.502 741.572 924.198 740.512 925.152 738.922C926.106 737.332 926.583 735.053 926.583 732.085C926.583 729.541 926.212 727.527 925.47 726.043C924.834 724.453 923.721 723.234 922.131 722.386C920.647 721.432 918.58 720.584 915.93 719.842L893.67 712.21C885.296 709.136 879.36 705.108 875.862 700.126C872.364 695.144 870.615 688.572 870.615 680.41C870.615 674.05 871.357 668.909 872.841 664.987C874.431 660.959 876.816 657.832 879.996 655.606C883.282 653.38 887.469 651.843 892.557 650.995C897.751 650.147 903.952 649.723 911.16 649.723ZM1052.02 651.79L1023.4 695.992C1022.24 697.9 1020.97 699.543 1019.59 700.921C1018.21 702.299 1016.83 703.465 1015.45 704.419V704.896C1016.94 705.744 1018.53 707.016 1020.22 708.712C1021.92 710.408 1023.3 712.21 1024.36 714.118L1053.93 761.5H1026.74L992.876 704.101L1025.79 651.79H1052.02ZM989.219 651.79V682.795C989.219 686.399 988.954 690.003 988.424 693.607C987.894 697.105 987.046 700.55 985.88 703.942C986.728 707.228 987.47 710.62 988.106 714.118C988.848 717.51 989.219 720.69 989.219 723.658V761.5H965.051V651.79H989.219ZM1001.62 695.992V712.846H981.905V695.992H1001.62ZM1148.66 651.79L1111.62 726.679H1088.72L1051.51 651.79H1076.79L1095.24 692.176C1096.19 694.296 1096.99 696.575 1097.62 699.013C1098.26 701.451 1098.84 703.783 1099.37 706.009H1100.96C1101.6 703.783 1102.23 701.451 1102.87 699.013C1103.51 696.575 1104.25 694.296 1105.1 692.176L1123.38 651.79H1148.66ZM1112.25 711.892V761.5H1087.92V711.892H1112.25ZM1296.74 651.79L1278.77 754.822C1278.45 756.73 1277.5 758.32 1275.91 759.592C1274.32 760.864 1272.41 761.5 1270.19 761.5H1247.45C1245.33 761.5 1243.42 760.864 1241.73 759.592C1240.14 758.32 1239.18 756.677 1238.86 754.663L1226.62 683.272C1226.3 680.834 1225.98 678.449 1225.67 676.117C1225.35 673.679 1225.03 671.294 1224.71 668.962H1221.69C1221.48 671.294 1221.21 673.679 1220.9 676.117C1220.58 678.555 1220.26 680.94 1219.94 683.272L1207.7 754.663C1207.38 756.677 1206.37 758.32 1204.68 759.592C1203.09 760.864 1201.23 761.5 1199.11 761.5H1176.22C1174.1 761.5 1172.19 760.864 1170.49 759.592C1168.9 758.32 1167.95 756.73 1167.63 754.822L1149.66 651.79H1174.15L1185.6 728.11C1185.92 730.442 1186.18 732.933 1186.39 735.583C1186.61 738.233 1186.82 741.042 1187.03 744.01H1190.05C1190.47 741.466 1190.9 738.816 1191.32 736.06C1191.85 733.198 1192.28 730.548 1192.59 728.11L1204.68 659.263C1205 657.037 1205.95 655.235 1207.54 653.857C1209.13 652.479 1211.04 651.79 1213.26 651.79H1233.3C1235.52 651.79 1237.38 652.479 1238.86 653.857C1240.45 655.235 1241.41 657.037 1241.73 659.263L1253.97 728.269C1254.39 730.813 1254.82 733.463 1255.24 736.219C1255.66 738.869 1256.04 741.466 1256.35 744.01H1259.53C1259.75 741.466 1259.96 738.816 1260.17 736.06C1260.49 733.304 1260.75 730.76 1260.96 728.428L1272.25 651.79H1296.74ZM1355.5 651.79C1357.52 651.79 1359.27 652.373 1360.75 653.539C1362.34 654.705 1363.4 656.242 1363.93 658.15L1395.73 761.5H1370.93L1348.51 680.887C1348.08 679.085 1347.66 677.283 1347.24 675.481C1346.81 673.573 1346.44 671.771 1346.12 670.075H1341.83C1341.51 671.771 1341.14 673.573 1340.72 675.481C1340.4 677.283 1339.97 679.085 1339.44 680.887L1317.03 761.5H1292.06L1324.02 658.15C1324.55 656.242 1325.56 654.705 1327.04 653.539C1328.63 652.373 1330.43 651.79 1332.45 651.79H1355.5ZM1372.36 714.277V732.562H1315.44V714.277H1372.36ZM1446.03 650.2C1455.67 650.2 1463.46 651.207 1469.4 653.221C1475.44 655.129 1479.84 658.468 1482.6 663.238C1485.46 667.902 1486.89 674.421 1486.89 682.795C1486.89 687.883 1486.2 692.388 1484.82 696.31C1483.55 700.126 1481.38 703.2 1478.3 705.532C1475.23 707.864 1471.04 709.348 1465.74 709.984V710.779C1467.65 711.097 1469.61 711.839 1471.62 713.005C1473.74 714.171 1475.71 715.92 1477.51 718.252C1479.31 720.478 1480.63 723.499 1481.48 727.315L1491.02 761.5H1465.42L1457 728.11C1456.04 724.506 1454.61 722.015 1452.7 720.637C1450.9 719.259 1448.36 718.57 1445.07 718.57C1437.86 718.57 1431.77 718.57 1426.79 718.57C1421.91 718.464 1417.78 718.358 1414.38 718.252C1411.1 718.146 1408.13 718.04 1405.48 717.934L1405.96 700.285H1445.55C1449.79 700.285 1453.13 699.861 1455.57 699.013C1458.11 698.059 1459.86 696.416 1460.81 694.084C1461.87 691.752 1462.4 688.519 1462.4 684.385C1462.4 680.145 1461.87 676.912 1460.81 674.686C1459.86 672.354 1458.11 670.764 1455.57 669.916C1453.13 668.962 1449.79 668.485 1445.55 668.485C1435.58 668.485 1427.16 668.538 1420.27 668.644C1413.38 668.75 1408.66 668.909 1406.12 669.121L1403.73 651.79C1408.18 651.26 1412.37 650.889 1416.29 650.677C1420.21 650.465 1424.51 650.359 1429.17 650.359C1433.84 650.253 1439.45 650.2 1446.03 650.2ZM1427.74 651.79V761.5H1403.73V651.79H1427.74ZM1546.59 650.2C1555.28 650.2 1562.59 651.154 1568.53 653.062C1574.57 654.864 1579.39 657.885 1583 662.125C1586.71 666.365 1589.41 672.142 1591.11 679.456C1592.8 686.664 1593.65 695.727 1593.65 706.645C1593.65 717.563 1592.8 726.679 1591.11 733.993C1589.41 741.201 1586.71 746.925 1583 751.165C1579.39 755.405 1574.57 758.479 1568.53 760.387C1562.59 762.189 1555.28 763.09 1546.59 763.09C1538.21 763.09 1530.53 762.931 1523.53 762.613C1516.54 762.295 1509.86 761.924 1503.5 761.5L1513.67 743.533C1517.7 743.745 1522.47 743.957 1527.98 744.169C1533.6 744.275 1539.8 744.328 1546.59 744.328C1551.99 744.328 1556.23 743.268 1559.31 741.148C1562.49 738.922 1564.71 735.053 1565.99 729.541C1567.36 724.029 1568.05 716.397 1568.05 706.645C1568.05 696.893 1567.36 689.261 1565.99 683.749C1564.71 678.237 1562.49 674.368 1559.31 672.142C1556.23 669.916 1551.99 668.803 1546.59 668.803C1540.12 668.803 1534.34 668.856 1529.26 668.962C1524.17 668.962 1519.19 668.962 1514.31 668.962L1503.5 651.79C1509.86 651.366 1516.48 650.995 1523.37 650.677C1530.37 650.359 1538.11 650.2 1546.59 650.2ZM1527.83 651.79V761.5H1503.5V651.79H1527.83Z" fill="black"/>
<path d="M926.884 850.787V819.287H935.764V824.627H936.124C936.684 822.947 937.644 821.527 939.004 820.367C940.364 819.167 942.224 818.567 944.584 818.567C946.744 818.567 948.584 819.107 950.104 820.187C951.624 821.267 952.724 822.847 953.404 824.927H953.584C953.864 824.047 954.284 823.227 954.844 822.467C955.444 821.667 956.164 820.987 957.004 820.427C957.844 819.867 958.784 819.427 959.824 819.107C960.864 818.747 961.984 818.567 963.184 818.567C966.224 818.567 968.544 819.647 970.144 821.807C971.784 823.967 972.604 827.047 972.604 831.047V850.787H963.724V831.767C963.724 827.767 962.284 825.767 959.404 825.767C958.084 825.767 956.884 826.147 955.804 826.907C954.724 827.667 954.184 828.827 954.184 830.387V850.787H945.304V831.767C945.304 827.767 943.864 825.767 940.984 825.767C940.344 825.767 939.704 825.867 939.064 826.067C938.464 826.227 937.904 826.507 937.384 826.907C936.904 827.307 936.504 827.807 936.184 828.407C935.904 828.967 935.764 829.627 935.764 830.387V850.787H926.884ZM1003.78 850.787C1002.18 850.787 1000.84 850.287 999.757 849.287C998.717 848.287 998.057 846.947 997.777 845.267H997.417C996.937 847.307 995.877 848.867 994.237 849.947C992.597 850.987 990.577 851.507 988.177 851.507C985.017 851.507 982.597 850.667 980.917 848.987C979.237 847.307 978.397 845.087 978.397 842.327C978.397 839.007 979.597 836.547 981.997 834.947C984.437 833.307 987.737 832.487 991.897 832.487H996.877V830.507C996.877 828.987 996.477 827.787 995.677 826.907C994.877 825.987 993.537 825.527 991.657 825.527C989.897 825.527 988.497 825.907 987.457 826.667C986.417 827.427 985.557 828.287 984.877 829.247L979.597 824.567C980.877 822.687 982.477 821.227 984.397 820.187C986.357 819.107 988.997 818.567 992.317 818.567C996.797 818.567 1000.16 819.547 1002.4 821.507C1004.64 823.467 1005.76 826.327 1005.76 830.087V843.887H1008.7V850.787H1003.78ZM991.477 845.327C992.957 845.327 994.217 845.007 995.257 844.367C996.337 843.727 996.877 842.687 996.877 841.247V837.527H992.557C989.077 837.527 987.337 838.707 987.337 841.067V841.967C987.337 843.127 987.697 843.987 988.417 844.547C989.137 845.067 990.157 845.327 991.477 845.327ZM1014.66 806.387H1023.54V832.607H1023.9L1027.8 826.787L1034.1 819.287H1043.94L1033.44 831.347L1045.14 850.787H1034.58L1027.5 837.467L1023.54 841.907V850.787H1014.66V806.387ZM1060.79 851.507C1058.39 851.507 1056.25 851.127 1054.37 850.367C1052.49 849.567 1050.89 848.467 1049.57 847.067C1048.29 845.627 1047.31 843.887 1046.63 841.847C1045.99 839.807 1045.67 837.527 1045.67 835.007C1045.67 832.527 1045.99 830.287 1046.63 828.287C1047.27 826.247 1048.21 824.507 1049.45 823.067C1050.73 821.627 1052.29 820.527 1054.13 819.767C1055.97 818.967 1058.07 818.567 1060.43 818.567C1063.03 818.567 1065.25 819.007 1067.09 819.887C1068.97 820.767 1070.49 821.947 1071.65 823.427C1072.85 824.907 1073.71 826.627 1074.23 828.587C1074.79 830.507 1075.07 832.527 1075.07 834.647V837.287H1054.85V837.767C1054.85 839.847 1055.41 841.507 1056.53 842.747C1057.65 843.947 1059.41 844.547 1061.81 844.547C1063.65 844.547 1065.15 844.187 1066.31 843.467C1067.47 842.707 1068.55 841.807 1069.55 840.767L1073.99 846.287C1072.59 847.927 1070.75 849.207 1068.47 850.127C1066.23 851.047 1063.67 851.507 1060.79 851.507ZM1060.61 825.107C1058.81 825.107 1057.39 825.707 1056.35 826.907C1055.35 828.067 1054.85 829.627 1054.85 831.587V832.067H1065.89V831.527C1065.89 829.607 1065.45 828.067 1064.57 826.907C1063.73 825.707 1062.41 825.107 1060.61 825.107ZM1114.78 819.287H1123.06L1110.94 855.647C1110.14 858.087 1109 859.887 1107.52 861.047C1106.08 862.207 1104 862.787 1101.28 862.787H1095.76V855.887H1101.7L1102.78 852.407L1091.74 819.287H1100.56L1105.18 833.987L1107.46 843.107H1107.82L1110.16 833.987L1114.78 819.287ZM1139.88 851.507C1137.56 851.507 1135.48 851.127 1133.64 850.367C1131.84 849.607 1130.3 848.507 1129.02 847.067C1127.78 845.627 1126.82 843.887 1126.14 841.847C1125.46 839.807 1125.12 837.527 1125.12 835.007C1125.12 832.487 1125.46 830.207 1126.14 828.167C1126.82 826.127 1127.78 824.407 1129.02 823.007C1130.3 821.567 1131.84 820.467 1133.64 819.707C1135.48 818.947 1137.56 818.567 1139.88 818.567C1142.2 818.567 1144.26 818.947 1146.06 819.707C1147.9 820.467 1149.44 821.567 1150.68 823.007C1151.96 824.407 1152.94 826.127 1153.62 828.167C1154.3 830.207 1154.64 832.487 1154.64 835.007C1154.64 837.527 1154.3 839.807 1153.62 841.847C1152.94 843.887 1151.96 845.627 1150.68 847.067C1149.44 848.507 1147.9 849.607 1146.06 850.367C1144.26 851.127 1142.2 851.507 1139.88 851.507ZM1139.88 844.487C1141.64 844.487 1143 843.947 1143.96 842.867C1144.92 841.787 1145.4 840.247 1145.4 838.247V831.827C1145.4 829.827 1144.92 828.287 1143.96 827.207C1143 826.127 1141.64 825.587 1139.88 825.587C1138.12 825.587 1136.76 826.127 1135.8 827.207C1134.84 828.287 1134.36 829.827 1134.36 831.827V838.247C1134.36 840.247 1134.84 841.787 1135.8 842.867C1136.76 843.947 1138.12 844.487 1139.88 844.487ZM1179.57 845.507H1179.27C1178.99 846.307 1178.61 847.067 1178.13 847.787C1177.69 848.507 1177.11 849.147 1176.39 849.707C1175.67 850.267 1174.81 850.707 1173.81 851.027C1172.85 851.347 1171.73 851.507 1170.45 851.507C1167.21 851.507 1164.75 850.447 1163.07 848.327C1161.43 846.167 1160.61 843.087 1160.61 839.087V819.287H1169.49V838.307C1169.49 840.227 1169.83 841.707 1170.51 842.747C1171.19 843.787 1172.35 844.307 1173.99 844.307C1174.67 844.307 1175.35 844.207 1176.03 844.007C1176.71 843.807 1177.31 843.527 1177.83 843.167C1178.35 842.767 1178.77 842.287 1179.09 841.727C1179.41 841.167 1179.57 840.507 1179.57 839.747V819.287H1188.45V850.787H1179.57V845.507ZM1196.71 850.787V819.287H1205.59V826.127H1205.89C1206.05 825.247 1206.33 824.407 1206.73 823.607C1207.13 822.767 1207.65 822.027 1208.29 821.387C1208.97 820.747 1209.77 820.247 1210.69 819.887C1211.61 819.487 1212.69 819.287 1213.93 819.287H1215.49V827.567H1213.27C1210.67 827.567 1208.73 827.907 1207.45 828.587C1206.21 829.267 1205.59 830.527 1205.59 832.367V850.787H1196.71ZM1247.93 851.507C1245.61 851.507 1243.53 851.127 1241.69 850.367C1239.89 849.607 1238.35 848.507 1237.07 847.067C1235.83 845.627 1234.87 843.887 1234.19 841.847C1233.51 839.807 1233.17 837.527 1233.17 835.007C1233.17 832.487 1233.51 830.207 1234.19 828.167C1234.87 826.127 1235.83 824.407 1237.07 823.007C1238.35 821.567 1239.89 820.467 1241.69 819.707C1243.53 818.947 1245.61 818.567 1247.93 818.567C1250.25 818.567 1252.31 818.947 1254.11 819.707C1255.95 820.467 1257.49 821.567 1258.73 823.007C1260.01 824.407 1260.99 826.127 1261.67 828.167C1262.35 830.207 1262.69 832.487 1262.69 835.007C1262.69 837.527 1262.35 839.807 1261.67 841.847C1260.99 843.887 1260.01 845.627 1258.73 847.067C1257.49 848.507 1255.95 849.607 1254.11 850.367C1252.31 851.127 1250.25 851.507 1247.93 851.507ZM1247.93 844.487C1249.69 844.487 1251.05 843.947 1252.01 842.867C1252.97 841.787 1253.45 840.247 1253.45 838.247V831.827C1253.45 829.827 1252.97 828.287 1252.01 827.207C1251.05 826.127 1249.69 825.587 1247.93 825.587C1246.17 825.587 1244.81 826.127 1243.85 827.207C1242.89 828.287 1242.41 829.827 1242.41 831.827V838.247C1242.41 840.247 1242.89 841.787 1243.85 842.867C1244.81 843.947 1246.17 844.487 1247.93 844.487ZM1265.43 819.287H1274.01L1277.07 832.007L1279.23 841.607H1279.47L1281.99 832.007L1285.59 819.287H1293.69L1297.35 832.007L1299.93 841.607H1300.17L1302.33 832.007L1305.39 819.287H1313.61L1304.91 850.787H1295.61L1291.77 837.467L1289.55 829.307H1289.37L1287.21 837.467L1283.37 850.787H1274.25L1265.43 819.287ZM1318.88 850.787V819.287H1327.76V824.627H1328.12C1328.68 822.987 1329.66 821.567 1331.06 820.367C1332.46 819.167 1334.4 818.567 1336.88 818.567C1340.12 818.567 1342.56 819.647 1344.2 821.807C1345.88 823.967 1346.72 827.047 1346.72 831.047V850.787H1337.84V831.767C1337.84 829.727 1337.52 828.227 1336.88 827.267C1336.24 826.267 1335.1 825.767 1333.46 825.767C1332.74 825.767 1332.04 825.867 1331.36 826.067C1330.68 826.227 1330.06 826.507 1329.5 826.907C1328.98 827.307 1328.56 827.807 1328.24 828.407C1327.92 828.967 1327.76 829.627 1327.76 830.387V850.787H1318.88ZM1368.8 819.287H1377.68V824.567H1377.98C1378.42 822.807 1379.42 821.367 1380.98 820.247C1382.58 819.127 1384.4 818.567 1386.44 818.567C1390.44 818.567 1393.46 819.967 1395.5 822.767C1397.54 825.567 1398.56 829.647 1398.56 835.007C1398.56 840.367 1397.54 844.467 1395.5 847.307C1393.46 850.107 1390.44 851.507 1386.44 851.507C1385.4 851.507 1384.42 851.347 1383.5 851.027C1382.58 850.747 1381.74 850.347 1380.98 849.827C1380.26 849.267 1379.64 848.627 1379.12 847.907C1378.6 847.147 1378.22 846.347 1377.98 845.507H1377.68V862.787H1368.8V819.287ZM1383.5 844.307C1385.18 844.307 1386.56 843.727 1387.64 842.567C1388.76 841.367 1389.32 839.767 1389.32 837.767V832.307C1389.32 830.307 1388.76 828.727 1387.64 827.567C1386.56 826.367 1385.18 825.767 1383.5 825.767C1381.82 825.767 1380.42 826.187 1379.3 827.027C1378.22 827.827 1377.68 828.947 1377.68 830.387V839.687C1377.68 841.127 1378.22 842.267 1379.3 843.107C1380.42 843.907 1381.82 844.307 1383.5 844.307ZM1418.08 851.507C1415.76 851.507 1413.68 851.127 1411.84 850.367C1410.04 849.607 1408.5 848.507 1407.22 847.067C1405.98 845.627 1405.02 843.887 1404.34 841.847C1403.66 839.807 1403.32 837.527 1403.32 835.007C1403.32 832.487 1403.66 830.207 1404.34 828.167C1405.02 826.127 1405.98 824.407 1407.22 823.007C1408.5 821.567 1410.04 820.467 1411.84 819.707C1413.68 818.947 1415.76 818.567 1418.08 818.567C1420.4 818.567 1422.46 818.947 1424.26 819.707C1426.1 820.467 1427.64 821.567 1428.88 823.007C1430.16 824.407 1431.14 826.127 1431.82 828.167C1432.5 830.207 1432.84 832.487 1432.84 835.007C1432.84 837.527 1432.5 839.807 1431.82 841.847C1431.14 843.887 1430.16 845.627 1428.88 847.067C1427.64 848.507 1426.1 849.607 1424.26 850.367C1422.46 851.127 1420.4 851.507 1418.08 851.507ZM1418.08 844.487C1419.84 844.487 1421.2 843.947 1422.16 842.867C1423.12 841.787 1423.6 840.247 1423.6 838.247V831.827C1423.6 829.827 1423.12 828.287 1422.16 827.207C1421.2 826.127 1419.84 825.587 1418.08 825.587C1416.32 825.587 1414.96 826.127 1414 827.207C1413.04 828.287 1412.56 829.827 1412.56 831.827V838.247C1412.56 840.247 1413.04 841.787 1414 842.867C1414.96 843.947 1416.32 844.487 1418.08 844.487ZM1435.58 819.287H1444.16L1447.22 832.007L1449.38 841.607H1449.62L1452.14 832.007L1455.74 819.287H1463.84L1467.5 832.007L1470.08 841.607H1470.32L1472.48 832.007L1475.54 819.287H1483.76L1475.06 850.787H1465.76L1461.92 837.467L1459.7 829.307H1459.52L1457.36 837.467L1453.52 850.787H1444.4L1435.58 819.287ZM1501.59 851.507C1499.19 851.507 1497.05 851.127 1495.17 850.367C1493.29 849.567 1491.69 848.467 1490.37 847.067C1489.09 845.627 1488.11 843.887 1487.43 841.847C1486.79 839.807 1486.47 837.527 1486.47 835.007C1486.47 832.527 1486.79 830.287 1487.43 828.287C1488.07 826.247 1489.01 824.507 1490.25 823.067C1491.53 821.627 1493.09 820.527 1494.93 819.767C1496.77 818.967 1498.87 818.567 1501.23 818.567C1503.83 818.567 1506.05 819.007 1507.89 819.887C1509.77 820.767 1511.29 821.947 1512.45 823.427C1513.65 824.907 1514.51 826.627 1515.03 828.587C1515.59 830.507 1515.87 832.527 1515.87 834.647V837.287H1495.65V837.767C1495.65 839.847 1496.21 841.507 1497.33 842.747C1498.45 843.947 1500.21 844.547 1502.61 844.547C1504.45 844.547 1505.95 844.187 1507.11 843.467C1508.27 842.707 1509.35 841.807 1510.35 840.767L1514.79 846.287C1513.39 847.927 1511.55 849.207 1509.27 850.127C1507.03 851.047 1504.47 851.507 1501.59 851.507ZM1501.41 825.107C1499.61 825.107 1498.19 825.707 1497.15 826.907C1496.15 828.067 1495.65 829.627 1495.65 831.587V832.067H1506.69V831.527C1506.69 829.607 1506.25 828.067 1505.37 826.907C1504.53 825.707 1503.21 825.107 1501.41 825.107ZM1522.14 850.787V819.287H1531.02V826.127H1531.32C1531.48 825.247 1531.76 824.407 1532.16 823.607C1532.56 822.767 1533.08 822.027 1533.72 821.387C1534.4 820.747 1535.2 820.247 1536.12 819.887C1537.04 819.487 1538.12 819.287 1539.36 819.287H1540.92V827.567H1538.7C1536.1 827.567 1534.16 827.907 1532.88 828.587C1531.64 829.267 1531.02 830.527 1531.02 832.367V850.787H1522.14Z" fill="black"/>
<path fill-rule="evenodd" clip-rule="evenodd" d="M1350.09 561.656L1233 407.758L1115.91 561.656H1142.14L1233 442.223L1323.87 561.656H1350.09Z" fill="black"/>
<path opacity="0.9" fill-rule="evenodd" clip-rule="evenodd" d="M1146.55 503.223C1127.52 482.403 1115.91 454.686 1115.91 424.259C1115.91 359.593 1168.34 307.172 1233 307.172C1297.67 307.172 1350.09 359.593 1350.09 424.259C1350.09 454.687 1338.48 482.404 1319.45 503.224L1308.34 488.62C1323.15 471.305 1332.09 448.826 1332.09 424.259C1332.09 369.535 1287.73 325.172 1233 325.172C1178.28 325.172 1133.91 369.535 1133.91 424.259C1133.91 448.826 1142.85 471.304 1157.66 488.619L1146.55 503.223Z" fill="black"/>
</svg>
