<?xml version="1.0" encoding="UTF-8" standalone="no"?>
<svg
   width="1000"
   height="265"
   viewBox="0 0 1000 265"
   fill="none"
   version="1.1"
   id="svg5"
   sodipodi:docname="horizontal-logo-default2.svg"
   inkscape:version="1.3 (0e150ed6c4, 2023-07-21)"
   xmlns:inkscape="http://www.inkscape.org/namespaces/inkscape"
   xmlns:sodipodi="http://sodipodi.sourceforge.net/DTD/sodipodi-0.dtd"
   xmlns="http://www.w3.org/2000/svg"
   xmlns:svg="http://www.w3.org/2000/svg">
  <defs
     id="defs5">
    <clipPath
       clipPathUnits="userSpaceOnUse"
       id="clipPath5">
      <rect
         style="fill:#40594d;fill-opacity:0"
         id="rect6"
         width="1001.6987"
         height="271.36929"
         x="666.5849"
         y="497.20679" />
    </clipPath>
    <clipPath
       clipPathUnits="userSpaceOnUse"
       id="clipPath6">
      <rect
         style="fill:#40594d;fill-opacity:0"
         id="rect7"
         width="1001.6987"
         height="271.36929"
         x="666.5849"
         y="497.20679" />
    </clipPath>
    <clipPath
       clipPathUnits="userSpaceOnUse"
       id="clipPath7">
      <rect
         style="fill:#40594d;fill-opacity:0"
         id="rect8"
         width="1001.6987"
         height="271.36929"
         x="666.5849"
         y="497.20679" />
    </clipPath>
    <clipPath
       clipPathUnits="userSpaceOnUse"
       id="clipPath8">
      <rect
         style="fill:#40594d;fill-opacity:0"
         id="rect9"
         width="1001.6987"
         height="271.36929"
         x="666.5849"
         y="497.20679" />
    </clipPath>
    <clipPath
       clipPathUnits="userSpaceOnUse"
       id="clipPath10">
      <rect
         style="fill:#40594d;fill-opacity:0"
         id="rect11"
         width="1010.8049"
         height="278.65436"
         x="662.94238"
         y="493.56427" />
    </clipPath>
    <clipPath
       clipPathUnits="userSpaceOnUse"
       id="clipPath11">
      <rect
         style="fill:#40594d;fill-opacity:0"
         id="rect12"
         width="1010.8049"
         height="278.65436"
         x="662.94238"
         y="493.56427" />
    </clipPath>
    <clipPath
       clipPathUnits="userSpaceOnUse"
       id="clipPath12">
      <rect
         style="fill:#40594d;fill-opacity:0"
         id="rect13"
         width="1010.8049"
         height="278.65436"
         x="662.94238"
         y="493.56427" />
    </clipPath>
    <clipPath
       clipPathUnits="userSpaceOnUse"
       id="clipPath13">
      <rect
         style="fill:#40594d;fill-opacity:0"
         id="rect14"
         width="1010.8049"
         height="278.65436"
         x="662.94238"
         y="493.56427" />
    </clipPath>
  </defs>
  <sodipodi:namedview
     id="namedview5"
     pagecolor="#ffffff"
     bordercolor="#000000"
     borderopacity="0.25"
     inkscape:showpageshadow="2"
     inkscape:pageopacity="0.0"
     inkscape:pagecheckerboard="0"
     inkscape:deskcolor="#d1d1d1"
     showgrid="false"
     inkscape:zoom="0.54906732"
     inkscape:cx="824.12482"
     inkscape:cy="610.12555"
     inkscape:window-width="1450"
     inkscape:window-height="1020"
     inkscape:window-x="428"
     inkscape:window-y="17"
     inkscape:window-maximized="0"
     inkscape:current-layer="svg5"
     showguides="false" />
  <path
     d="m 978.547,542.26805 c 5.406,0 11.289,0.318 17.649,0.954 6.36,0.53 12.561,1.696 18.603,3.498 l -1.59,16.059 c -4.664,-0.106 -10.123,-0.212 -16.377,-0.318 -6.254,-0.106 -12.402,-0.159 -18.444,-0.159 -2.968,0 -5.512,0.106 -7.632,0.318 -2.014,0.106 -3.657,0.53 -4.929,1.272 -1.272,0.636 -2.173,1.643 -2.703,3.021 -0.53,1.378 -0.795,3.286 -0.795,5.724 0,3.71 0.848,6.413 2.544,8.109 1.802,1.696 4.823,3.233 9.063,4.611 l 21.147,6.837 c 8.798,2.968 14.893,6.996 18.285,12.084 3.392,5.088 5.088,11.766 5.088,20.034 0,6.254 -0.742,11.448 -2.226,15.582 -1.484,4.134 -3.816,7.367 -6.996,9.699 -3.18,2.332 -7.367,3.975 -12.561,4.929 -5.194,1.06 -11.554,1.59 -19.08,1.59 -3.604,0 -8.745,-0.265 -15.423,-0.795 -6.678,-0.424 -14.31,-1.59 -22.896,-3.498 l 1.59,-17.172 c 6.254,0.106 11.66,0.265 16.218,0.477 4.664,0.106 8.639,0.212 11.925,0.318 3.286,0 6.148,0 8.586,0 4.24,0 7.526,-0.265 9.858,-0.795 2.438,-0.53 4.134,-1.59 5.088,-3.18 0.954,-1.59 1.431,-3.869 1.431,-6.837 0,-2.544 -0.371,-4.558 -1.113,-6.042 -0.636,-1.59 -1.749,-2.809 -3.339,-3.657 -1.484,-0.954 -3.551,-1.802 -6.201,-2.544 l -22.26,-7.632 c -8.374,-3.074 -14.31,-7.102 -17.808,-12.084 -3.498,-4.982 -5.247,-11.554 -5.247,-19.716 0,-6.36 0.742,-11.501 2.226,-15.423 1.59,-4.028 3.975,-7.155 7.155,-9.381 3.286,-2.226 7.473,-3.763 12.561,-4.611 5.194,-0.848 11.395,-1.272 18.603,-1.272 z m 140.86,2.067 -28.62,44.202 c -1.16,1.908 -2.43,3.551 -3.81,4.929 -1.38,1.378 -2.76,2.544 -4.14,3.498 v 0.477 c 1.49,0.848 3.08,2.12 4.77,3.816 1.7,1.696 3.08,3.498 4.14,5.406 l 29.57,47.382 h -27.19 l -33.864,-57.399 32.914,-52.311 z m -62.801,0 v 31.005 c 0,3.604 -0.265,7.208 -0.795,10.812 -0.53,3.498 -1.378,6.943 -2.544,10.335 0.848,3.286 1.59,6.678 2.226,10.176 0.742,3.392 1.113,6.572 1.113,9.54 v 37.842 h -24.168 v -109.71 z m 12.401,44.202 v 16.854 h -19.715 v -16.854 z m 147.04,-44.202 -37.04,74.889 h -22.9 l -37.21,-74.889 h 25.28 l 18.45,40.386 c 0.95,2.12 1.75,4.399 2.38,6.837 0.64,2.438 1.22,4.77 1.75,6.996 h 1.59 c 0.64,-2.226 1.27,-4.558 1.91,-6.996 0.64,-2.438 1.38,-4.717 2.23,-6.837 l 18.28,-40.386 z m -36.41,60.102 v 49.608 h -24.33 v -49.608 z m 184.49,-60.102 -17.97,103.032 c -0.32,1.908 -1.27,3.498 -2.86,4.77 -1.59,1.272 -3.5,1.908 -5.72,1.908 h -22.74 c -2.12,0 -4.03,-0.636 -5.72,-1.908 -1.59,-1.272 -2.55,-2.915 -2.87,-4.929 l -12.24,-71.391 c -0.32,-2.438 -0.64,-4.823 -0.95,-7.155 -0.32,-2.438 -0.64,-4.823 -0.96,-7.155 h -3.02 c -0.21,2.332 -0.48,4.717 -0.79,7.155 -0.32,2.438 -0.64,4.823 -0.96,7.155 l -12.24,71.391 c -0.32,2.014 -1.33,3.657 -3.02,4.929 -1.59,1.272 -3.45,1.908 -5.57,1.908 h -22.89 c -2.12,0 -4.03,-0.636 -5.73,-1.908 -1.59,-1.272 -2.54,-2.862 -2.86,-4.77 l -17.97,-103.032 h 24.49 l 11.45,76.32 c 0.32,2.332 0.58,4.823 0.79,7.473 0.22,2.65 0.43,5.459 0.64,8.427 h 3.02 c 0.42,-2.544 0.85,-5.194 1.27,-7.95 0.53,-2.862 0.96,-5.512 1.27,-7.95 l 12.09,-68.847 c 0.32,-2.226 1.27,-4.028 2.86,-5.406 1.59,-1.378 3.5,-2.067 5.72,-2.067 h 20.04 c 2.22,0 4.08,0.689 5.56,2.067 1.59,1.378 2.55,3.18 2.87,5.406 l 12.24,69.006 c 0.42,2.544 0.85,5.194 1.27,7.95 0.42,2.65 0.8,5.247 1.11,7.791 h 3.18 c 0.22,-2.544 0.43,-5.194 0.64,-7.95 0.32,-2.756 0.58,-5.3 0.79,-7.632 l 11.29,-76.638 z m 58.76,0 c 2.02,0 3.77,0.583 5.25,1.749 1.59,1.166 2.65,2.703 3.18,4.611 l 31.8,103.35 h -24.8 l -22.42,-80.613 c -0.43,-1.802 -0.85,-3.604 -1.27,-5.406 -0.43,-1.908 -0.8,-3.71 -1.12,-5.406 h -4.29 c -0.32,1.696 -0.69,3.498 -1.11,5.406 -0.32,1.802 -0.75,3.604 -1.28,5.406 l -22.41,80.613 h -24.97 l 31.96,-103.35 c 0.53,-1.908 1.54,-3.445 3.02,-4.611 1.59,-1.166 3.39,-1.749 5.41,-1.749 z m 16.86,62.487 v 18.285 h -56.92 v -18.285 z m 73.67,-64.077 c 9.64,0 17.43,1.007 23.37,3.021 6.04,1.908 10.44,5.247 13.2,10.017 2.86,4.664 4.29,11.183 4.29,19.557 0,5.088 -0.69,9.593 -2.07,13.515 -1.27,3.816 -3.44,6.89 -6.52,9.222 -3.07,2.332 -7.26,3.816 -12.56,4.452 v 0.795 c 1.91,0.318 3.87,1.06 5.88,2.226 2.12,1.166 4.09,2.915 5.89,5.247 1.8,2.226 3.12,5.247 3.97,9.063 l 9.54,34.185 h -25.6 l -8.42,-33.39 c -0.96,-3.604 -2.39,-6.095 -4.3,-7.473 -1.8,-1.378 -4.34,-2.067 -7.63,-2.067 -7.21,0 -13.3,0 -18.28,0 -4.88,-0.106 -9.01,-0.212 -12.41,-0.318 -3.28,-0.106 -6.25,-0.212 -8.9,-0.318 l 0.48,-17.649 h 39.59 c 4.24,0 7.58,-0.424 10.02,-1.272 2.54,-0.954 4.29,-2.597 5.24,-4.929 1.06,-2.332 1.59,-5.565 1.59,-9.699 0,-4.24 -0.53,-7.473 -1.59,-9.699 -0.95,-2.332 -2.7,-3.922 -5.24,-4.77 -2.44,-0.954 -5.78,-1.431 -10.02,-1.431 -9.97,0 -18.39,0.053 -25.28,0.159 -6.89,0.106 -11.61,0.265 -14.15,0.477 l -2.39,-17.331 c 4.45,-0.53 8.64,-0.901 12.56,-1.113 3.92,-0.212 8.22,-0.318 12.88,-0.318 4.67,-0.106 10.28,-0.159 16.86,-0.159 z m -18.29,1.59 v 109.71 h -24.01 v -109.71 z m 118.85,-1.59 c 8.69,0 16,0.954 21.94,2.862 6.04,1.802 10.86,4.823 14.47,9.063 3.71,4.24 6.41,10.017 8.11,17.331 1.69,7.208 2.54,16.271 2.54,27.189 0,10.918 -0.85,20.034 -2.54,27.348 -1.7,7.208 -4.4,12.932 -8.11,17.172 -3.61,4.24 -8.43,7.314 -14.47,9.222 -5.94,1.802 -13.25,2.703 -21.94,2.703 -8.38,0 -16.06,-0.159 -23.06,-0.477 -6.99,-0.318 -13.67,-0.689 -20.03,-1.113 l 10.17,-17.967 c 4.03,0.212 8.8,0.424 14.31,0.636 5.62,0.106 11.82,0.159 18.61,0.159 5.4,0 9.64,-1.06 12.72,-3.18 3.18,-2.226 5.4,-6.095 6.68,-11.607 1.37,-5.512 2.06,-13.144 2.06,-22.896 0,-9.752 -0.69,-17.384 -2.06,-22.896 -1.28,-5.512 -3.5,-9.381 -6.68,-11.607 -3.08,-2.226 -7.32,-3.339 -12.72,-3.339 -6.47,0 -12.25,0.053 -17.33,0.159 -5.09,0 -10.07,0 -14.95,0 l -10.81,-17.172 c 6.36,-0.424 12.98,-0.795 19.87,-1.113 7,-0.318 14.74,-0.477 23.22,-0.477 z m -18.76,1.59 v 109.71 h -24.33 v -109.71 z"
     fill="#000000"
     id="path2"
     clip-path="url(#clipPath13)"
     transform="translate(-666.58493,-500.84934)" />
  <path
     d="m 994.271,743.33105 v -31.5 h 8.88 v 5.34 h 0.36 c 0.56,-1.68 1.52,-3.1 2.88,-4.26 1.36,-1.2 3.22,-1.8 5.58,-1.8 2.16,0 4,0.54 5.52,1.62 1.52,1.08 2.62,2.66 3.3,4.74 h 0.18 c 0.28,-0.88 0.7,-1.7 1.26,-2.46 0.6,-0.8 1.32,-1.48 2.16,-2.04 0.84,-0.56 1.78,-1 2.82,-1.32 1.04,-0.36 2.16,-0.54 3.36,-0.54 3.04,0 5.36,1.08 6.96,3.24 1.64,2.16 2.46,5.24 2.46,9.24 v 19.74 h -8.88 v -19.02 c 0,-4 -1.44,-6 -4.32,-6 -1.32,0 -2.52,0.38 -3.6,1.14 -1.08,0.76 -1.62,1.92 -1.62,3.48 v 20.4 h -8.88 v -19.02 c 0,-4 -1.44,-6 -4.32,-6 -0.64,0 -1.28,0.1 -1.92,0.3 -0.6,0.16 -1.16,0.44 -1.68,0.84 -0.48,0.4 -0.88,0.9 -1.2,1.5 -0.28,0.56 -0.42,1.22 -0.42,1.98 v 20.4 z m 76.896,0 c -1.6,0 -2.94,-0.5 -4.023,-1.5 -1.04,-1 -1.7,-2.34 -1.98,-4.02 h -0.36 c -0.48,2.04 -1.54,3.6 -3.18,4.68 -1.64,1.04 -3.66,1.56 -6.06,1.56 -3.16,0 -5.58,-0.84 -7.26,-2.52 -1.68,-1.68 -2.52,-3.9 -2.52,-6.66 0,-3.32 1.2,-5.78 3.6,-7.38 2.44,-1.64 5.74,-2.46 9.9,-2.46 h 4.98 v -1.98 c 0,-1.52 -0.4,-2.72 -1.2,-3.6 -0.8,-0.92 -2.14,-1.38 -4.02,-1.38 -1.76,0 -3.16,0.38 -4.2,1.14 -1.04,0.76 -1.9,1.62 -2.58,2.58 l -5.28,-4.68 c 1.28,-1.88 2.88,-3.34 4.8,-4.38 1.96,-1.08 4.6,-1.62 7.92,-1.62 4.48,0 7.843,0.98 10.083,2.94 2.24,1.96 3.36,4.82 3.36,8.58 v 13.8 h 2.94 v 6.9 z m -12.303,-5.46 c 1.48,0 2.74,-0.32 3.78,-0.96 1.08,-0.64 1.62,-1.68 1.62,-3.12 v -3.72 h -4.32 c -3.48,0 -5.22,1.18 -5.22,3.54 v 0.9 c 0,1.16 0.36,2.02 1.08,2.58 0.72,0.52 1.74,0.78 3.06,0.78 z m 23.183,-38.94 h 8.88 v 26.22 h 0.36 l 3.9,-5.82 6.3,-7.5 h 9.84 l -10.5,12.06 11.7,19.44 h -10.56 l -7.08,-13.32 -3.96,4.44 v 8.88 h -8.88 z m 46.13,45.12 c -2.4,0 -4.54,-0.38 -6.42,-1.14 -1.88,-0.8 -3.48,-1.9 -4.8,-3.3 -1.28,-1.44 -2.26,-3.18 -2.94,-5.22 -0.64,-2.04 -0.96,-4.32 -0.96,-6.84 0,-2.48 0.32,-4.72 0.96,-6.72 0.64,-2.04 1.58,-3.78 2.82,-5.22 1.28,-1.44 2.84,-2.54 4.68,-3.3 1.84,-0.8 3.94,-1.2 6.3,-1.2 2.6,0 4.82,0.44 6.66,1.32 1.88,0.88 3.4,2.06 4.56,3.54 1.2,1.48 2.06,3.2 2.58,5.16 0.56,1.92 0.84,3.94 0.84,6.06 v 2.64 h -20.22 v 0.48 c 0,2.08 0.56,3.74 1.68,4.98 1.12,1.2 2.88,1.8 5.28,1.8 1.84,0 3.34,-0.36 4.5,-1.08 1.16,-0.76 2.24,-1.66 3.24,-2.7 l 4.44,5.52 c -1.4,1.64 -3.24,2.92 -5.52,3.84 -2.24,0.92 -4.8,1.38 -7.68,1.38 z m -0.18,-26.4 c -1.8,0 -3.22,0.6 -4.26,1.8 -1,1.16 -1.5,2.72 -1.5,4.68 v 0.48 h 11.04 v -0.54 c 0,-1.92 -0.44,-3.46 -1.32,-4.62 -0.84,-1.2 -2.16,-1.8 -3.96,-1.8 z m 54.17,-5.82 h 8.28 l -12.12,36.36 c -0.8,2.44 -1.94,4.24 -3.42,5.4 -1.44,1.16 -3.52,1.74 -6.24,1.74 h -5.52 v -6.9 h 5.94 l 1.08,-3.48 -11.04,-33.12 h 8.82 l 4.62,14.7 2.28,9.12 h 0.36 l 2.34,-9.12 z m 25.1,32.22 c -2.32,0 -4.4,-0.38 -6.24,-1.14 -1.8,-0.76 -3.34,-1.86 -4.62,-3.3 -1.24,-1.44 -2.2,-3.18 -2.88,-5.22 -0.68,-2.04 -1.02,-4.32 -1.02,-6.84 0,-2.52 0.34,-4.8 1.02,-6.84 0.68,-2.04 1.64,-3.76 2.88,-5.16 1.28,-1.44 2.82,-2.54 4.62,-3.3 1.84,-0.76 3.92,-1.14 6.24,-1.14 2.32,0 4.38,0.38 6.18,1.14 1.84,0.76 3.38,1.86 4.62,3.3 1.28,1.4 2.26,3.12 2.94,5.16 0.68,2.04 1.02,4.32 1.02,6.84 0,2.52 -0.34,4.8 -1.02,6.84 -0.68,2.04 -1.66,3.78 -2.94,5.22 -1.24,1.44 -2.78,2.54 -4.62,3.3 -1.8,0.76 -3.86,1.14 -6.18,1.14 z m 0,-7.02 c 1.76,0 3.12,-0.54 4.08,-1.62 0.96,-1.08 1.44,-2.62 1.44,-4.62 v -6.42 c 0,-2 -0.48,-3.54 -1.44,-4.62 -0.96,-1.08 -2.32,-1.62 -4.08,-1.62 -1.76,0 -3.12,0.54 -4.08,1.62 -0.96,1.08 -1.44,2.62 -1.44,4.62 v 6.42 c 0,2 0.48,3.54 1.44,4.62 0.96,1.08 2.32,1.62 4.08,1.62 z m 39.69,1.02 h -0.3 c -0.28,0.8 -0.66,1.56 -1.14,2.28 -0.44,0.72 -1.02,1.36 -1.74,1.92 -0.72,0.56 -1.58,1 -2.58,1.32 -0.96,0.32 -2.08,0.48 -3.36,0.48 -3.24,0 -5.7,-1.06 -7.38,-3.18 -1.64,-2.16 -2.46,-5.24 -2.46,-9.24 v -19.8 h 8.88 v 19.02 c 0,1.92 0.34,3.4 1.02,4.44 0.68,1.04 1.84,1.56 3.48,1.56 0.68,0 1.36,-0.1 2.04,-0.3 0.68,-0.2 1.28,-0.48 1.8,-0.84 0.52,-0.4 0.94,-0.88 1.26,-1.44 0.32,-0.56 0.48,-1.22 0.48,-1.98 v -20.46 h 8.88 v 31.5 h -8.88 z m 17.14,5.28 v -31.5 h 8.88 v 6.84 h 0.3 c 0.16,-0.88 0.44,-1.72 0.84,-2.52 0.4,-0.84 0.92,-1.58 1.56,-2.22 0.68,-0.64 1.48,-1.14 2.4,-1.5 0.92,-0.4 2,-0.6 3.24,-0.6 h 1.56 v 8.28 h -2.22 c -2.6,0 -4.54,0.34 -5.82,1.02 -1.24,0.68 -1.86,1.94 -1.86,3.78 v 18.42 z m 51.22,0.72 c -2.32,0 -4.4,-0.38 -6.24,-1.14 -1.8,-0.76 -3.34,-1.86 -4.62,-3.3 -1.24,-1.44 -2.2,-3.18 -2.88,-5.22 -0.68,-2.04 -1.02,-4.32 -1.02,-6.84 0,-2.52 0.34,-4.8 1.02,-6.84 0.68,-2.04 1.64,-3.76 2.88,-5.16 1.28,-1.44 2.82,-2.54 4.62,-3.3 1.84,-0.76 3.92,-1.14 6.24,-1.14 2.32,0 4.38,0.38 6.18,1.14 1.84,0.76 3.38,1.86 4.62,3.3 1.28,1.4 2.26,3.12 2.94,5.16 0.68,2.04 1.02,4.32 1.02,6.84 0,2.52 -0.34,4.8 -1.02,6.84 -0.68,2.04 -1.66,3.78 -2.94,5.22 -1.24,1.44 -2.78,2.54 -4.62,3.3 -1.8,0.76 -3.86,1.14 -6.18,1.14 z m 0,-7.02 c 1.76,0 3.12,-0.54 4.08,-1.62 0.96,-1.08 1.44,-2.62 1.44,-4.62 v -6.42 c 0,-2 -0.48,-3.54 -1.44,-4.62 -0.96,-1.08 -2.32,-1.62 -4.08,-1.62 -1.76,0 -3.12,0.54 -4.08,1.62 -0.96,1.08 -1.44,2.62 -1.44,4.62 v 6.42 c 0,2 0.48,3.54 1.44,4.62 0.96,1.08 2.32,1.62 4.08,1.62 z m 17.5,-25.2 h 8.58 l 3.06,12.72 2.16,9.6 h 0.24 l 2.52,-9.6 3.6,-12.72 h 8.1 l 3.66,12.72 2.58,9.6 h 0.24 l 2.16,-9.6 3.06,-12.72 h 8.22 l -8.7,31.5 h -9.3 l -3.84,-13.32 -2.22,-8.16 h -0.18 l -2.16,8.16 -3.84,13.32 h -9.12 z m 53.45,31.5 v -31.5 h 8.88 v 5.34 h 0.36 c 0.56,-1.64 1.54,-3.06 2.94,-4.26 1.4,-1.2 3.34,-1.8 5.82,-1.8 3.24,0 5.68,1.08 7.32,3.24 1.68,2.16 2.52,5.24 2.52,9.24 v 19.74 h -8.88 v -19.02 c 0,-2.04 -0.32,-3.54 -0.96,-4.5 -0.64,-1 -1.78,-1.5 -3.42,-1.5 -0.72,0 -1.42,0.1 -2.1,0.3 -0.68,0.16 -1.3,0.44 -1.86,0.84 -0.52,0.4 -0.94,0.9 -1.26,1.5 -0.32,0.56 -0.48,1.22 -0.48,1.98 v 20.4 z m 49.92,-31.5 h 8.88 v 5.28 h 0.3 c 0.44,-1.76 1.44,-3.2 3,-4.32 1.6,-1.12 3.42,-1.68 5.46,-1.68 4,0 7.02,1.4 9.06,4.2 2.04,2.8 3.06,6.88 3.06,12.24 0,5.36 -1.02,9.46 -3.06,12.3 -2.04,2.8 -5.06,4.2 -9.06,4.2 -1.04,0 -2.02,-0.16 -2.94,-0.48 -0.92,-0.28 -1.76,-0.68 -2.52,-1.2 -0.72,-0.56 -1.34,-1.2 -1.86,-1.92 -0.52,-0.76 -0.9,-1.56 -1.14,-2.4 h -0.3 v 17.28 h -8.88 z m 14.7,25.02 c 1.68,0 3.06,-0.58 4.14,-1.74 1.12,-1.2 1.68,-2.8 1.68,-4.8 v -5.46 c 0,-2 -0.56,-3.58 -1.68,-4.74 -1.08,-1.2 -2.46,-1.8 -4.14,-1.8 -1.68,0 -3.08,0.42 -4.2,1.26 -1.08,0.8 -1.62,1.92 -1.62,3.36 v 9.3 c 0,1.44 0.54,2.58 1.62,3.42 1.12,0.8 2.52,1.2 4.2,1.2 z m 34.58,7.2 c -2.32,0 -4.4,-0.38 -6.24,-1.14 -1.8,-0.76 -3.34,-1.86 -4.62,-3.3 -1.24,-1.44 -2.2,-3.18 -2.88,-5.22 -0.68,-2.04 -1.02,-4.32 -1.02,-6.84 0,-2.52 0.34,-4.8 1.02,-6.84 0.68,-2.04 1.64,-3.76 2.88,-5.16 1.28,-1.44 2.82,-2.54 4.62,-3.3 1.84,-0.76 3.92,-1.14 6.24,-1.14 2.32,0 4.38,0.38 6.18,1.14 1.84,0.76 3.38,1.86 4.62,3.3 1.28,1.4 2.26,3.12 2.94,5.16 0.68,2.04 1.02,4.32 1.02,6.84 0,2.52 -0.34,4.8 -1.02,6.84 -0.68,2.04 -1.66,3.78 -2.94,5.22 -1.24,1.44 -2.78,2.54 -4.62,3.3 -1.8,0.76 -3.86,1.14 -6.18,1.14 z m 0,-7.02 c 1.76,0 3.12,-0.54 4.08,-1.62 0.96,-1.08 1.44,-2.62 1.44,-4.62 v -6.42 c 0,-2 -0.48,-3.54 -1.44,-4.62 -0.96,-1.08 -2.32,-1.62 -4.08,-1.62 -1.76,0 -3.12,0.54 -4.08,1.62 -0.96,1.08 -1.44,2.62 -1.44,4.62 v 6.42 c 0,2 0.48,3.54 1.44,4.62 0.96,1.08 2.32,1.62 4.08,1.62 z m 17.5,-25.2 h 8.58 l 3.06,12.72 2.16,9.6 h 0.24 l 2.52,-9.6 3.6,-12.72 h 8.1 l 3.66,12.72 2.58,9.6 h 0.24 l 2.16,-9.6 3.06,-12.72 h 8.22 l -8.7,31.5 h -9.3 l -3.84,-13.32 -2.22,-8.16 h -0.18 l -2.16,8.16 -3.84,13.32 h -9.12 z m 66.01,32.22 c -2.4,0 -4.54,-0.38 -6.42,-1.14 -1.88,-0.8 -3.48,-1.9 -4.8,-3.3 -1.28,-1.44 -2.26,-3.18 -2.94,-5.22 -0.64,-2.04 -0.96,-4.32 -0.96,-6.84 0,-2.48 0.32,-4.72 0.96,-6.72 0.64,-2.04 1.58,-3.78 2.82,-5.22 1.28,-1.44 2.84,-2.54 4.68,-3.3 1.84,-0.8 3.94,-1.2 6.3,-1.2 2.6,0 4.82,0.44 6.66,1.32 1.88,0.88 3.4,2.06 4.56,3.54 1.2,1.48 2.06,3.2 2.58,5.16 0.56,1.92 0.84,3.94 0.84,6.06 v 2.64 h -20.22 v 0.48 c 0,2.08 0.56,3.74 1.68,4.98 1.12,1.2 2.88,1.8 5.28,1.8 1.84,0 3.34,-0.36 4.5,-1.08 1.16,-0.76 2.24,-1.66 3.24,-2.7 l 4.44,5.52 c -1.4,1.64 -3.24,2.92 -5.52,3.84 -2.24,0.92 -4.8,1.38 -7.68,1.38 z m -0.18,-26.4 c -1.8,0 -3.22,0.6 -4.26,1.8 -1,1.16 -1.5,2.72 -1.5,4.68 v 0.48 h 11.04 v -0.54 c 0,-1.92 -0.44,-3.46 -1.32,-4.62 -0.84,-1.2 -2.16,-1.8 -3.96,-1.8 z m 20.73,25.68 v -31.5 h 8.88 v 6.84 h 0.3 c 0.16,-0.88 0.44,-1.72 0.84,-2.52 0.4,-0.84 0.92,-1.58 1.56,-2.22 0.68,-0.64 1.48,-1.14 2.4,-1.5 0.92,-0.4 2,-0.6 3.24,-0.6 h 1.56 v 8.28 h -2.22 c -2.6,0 -4.54,0.34 -5.82,1.02 -1.24,0.68 -1.86,1.94 -1.86,3.78 v 18.42 z"
     fill="#000000"
     id="path3"
     clip-path="url(#clipPath12)"
     transform="translate(-666.58493,-500.84934)" />
  <path
     fill-rule="evenodd"
     clip-rule="evenodd"
     d="m 907.52131,760.17446 -117.09,-153.898 -117.09,153.898 h 26.23 l 90.86,-119.433 90.87,119.433 z"
     fill="#0099ff"
     id="path4"
     clip-path="url(#clipPath11)"
     transform="translate(-666.58493,-500.84934)" />
  <path
     opacity="0.9"
     fill-rule="evenodd"
     clip-rule="evenodd"
     d="m 703.98131,701.74146 c -19.03,-20.82 -30.64,-48.537 -30.64,-78.964 0,-64.666 52.43,-117.087 117.09,-117.087 64.67,0 117.09,52.421 117.09,117.087 0,30.428 -11.61,58.145 -30.64,78.965 l -11.11,-14.604 c 14.81,-17.315 23.75,-39.794 23.75,-64.361 0,-54.724 -44.36,-99.087 -99.09,-99.087 -54.72,0 -99.09,44.363 -99.09,99.087 0,24.567 8.94,47.045 23.75,64.36 z"
     fill="#ffcc33"
     id="path5"
     clip-path="url(#clipPath10)"
     transform="translate(-666.58493,-500.84934)" />
  <rect
     style="fill:#40594d;fill-opacity:0"
     id="rect15"
     width="1012.6262"
     height="276.8331"
     x="662.94238"
     y="495.38553" />
</svg>
