<svg width="2465" height="1223" viewBox="0 0 2465 1223" fill="none" xmlns="http://www.w3.org/2000/svg">
<rect width="2465" height="1223" fill="white"/>
<path fill-rule="evenodd" clip-rule="evenodd" d="M1447.5 879.148L1232.5 596.553L1017.5 879.148H1060.65L1232.5 651.84L1403.35 879.148H1447.5Z" fill="#FFCC33"/>
<path opacity="0.9" fill-rule="evenodd" clip-rule="evenodd" d="M1073.75 771.85C1038.81 733.62 1017.5 682.725 1017.5 626.853C1017.5 508.111 1113.76 411.853 1232.5 411.853C1351.24 411.853 1447.5 508.111 1447.5 626.853C1447.5 682.726 1426.19 733.622 1391.25 771.853L1370.84 745.035C1398.03 713.241 1414.45 671.964 1414.45 626.853C1414.45 526.366 1332.99 444.905 1232.5 444.905C1132.01 444.905 1050.55 526.366 1050.55 626.853C1050.55 671.963 1066.97 713.239 1094.15 745.033L1073.75 771.85Z" fill="#FFCC33"/>
</svg>
