<svg width="2465" height="1223" viewBox="0 0 2465 1223" fill="none" xmlns="http://www.w3.org/2000/svg">
<rect width="2465" height="1223" fill="white"/>
<path fill-rule="evenodd" clip-rule="evenodd" d="M1448.44 878.123L1233.44 596.767L1018.44 878.123H1066.59L1233.44 659.776L1400.29 878.123H1448.44Z" fill="#0099FF"/>
<path opacity="0.9" fill-rule="evenodd" clip-rule="evenodd" d="M1074.69 771.295C1039.76 733.232 1018.44 682.56 1018.44 626.933C1018.44 508.712 1114.7 412.875 1233.44 412.875C1352.18 412.875 1448.44 508.712 1448.44 626.933C1448.44 682.561 1427.13 733.234 1392.19 771.298L1371.79 744.598C1398.97 712.943 1415.39 671.847 1415.39 626.933C1415.39 526.886 1333.93 445.782 1233.44 445.782C1132.96 445.782 1051.5 526.886 1051.5 626.933C1051.5 671.846 1067.91 712.941 1095.1 744.595L1074.69 771.295Z" fill="#FFCC33"/>
</svg>
