<svg width="2466" height="1223" viewBox="0 0 2466 1223" fill="none" xmlns="http://www.w3.org/2000/svg">
<rect width="2465" height="1223" transform="translate(0.5)" fill="black"/>
<path fill-rule="evenodd" clip-rule="evenodd" d="M1448.94 878.123L1233.94 596.767L1018.94 878.123H1067.09L1233.94 659.776L1400.79 878.123H1448.94Z" fill="#0099FF"/>
<path opacity="0.9" fill-rule="evenodd" clip-rule="evenodd" d="M1075.19 771.295C1040.26 733.232 1018.94 682.56 1018.94 626.933C1018.94 508.712 1115.2 412.875 1233.94 412.875C1352.68 412.875 1448.94 508.712 1448.94 626.933C1448.94 682.561 1427.63 733.234 1392.69 771.298L1372.29 744.598C1399.47 712.943 1415.89 671.847 1415.89 626.933C1415.89 526.886 1334.43 445.782 1233.94 445.782C1133.46 445.782 1052 526.886 1052 626.933C1052 671.846 1068.41 712.941 1095.6 744.595L1075.19 771.295Z" fill="#FFCC33"/>
</svg>
