<svg width="2466" height="1223" viewBox="0 0 2466 1223" fill="none" xmlns="http://www.w3.org/2000/svg">
<rect width="2465" height="1223" transform="translate(0.5)" fill="#FFCC33"/>
<path fill-rule="evenodd" clip-rule="evenodd" d="M1448 879.148L1233 596.553L1018 879.148H1066.15L1233 659.84L1399.85 879.148H1448Z" fill="black"/>
<path opacity="0.9" fill-rule="evenodd" clip-rule="evenodd" d="M1074.25 771.85C1039.31 733.62 1018 682.725 1018 626.853C1018 508.111 1114.26 411.853 1233 411.853C1351.74 411.853 1448 508.111 1448 626.853C1448 682.726 1426.69 733.622 1391.75 771.853L1371.34 745.035C1398.53 713.241 1414.95 671.964 1414.95 626.853C1414.95 526.366 1333.49 444.905 1233 444.905C1132.51 444.905 1051.05 526.366 1051.05 626.853C1051.05 671.963 1067.47 713.239 1094.65 745.033L1074.25 771.85Z" fill="black"/>
</svg>
