<svg width="2465" height="1223" viewBox="0 0 2465 1223" fill="none" xmlns="http://www.w3.org/2000/svg">
<rect width="2465" height="1223" fill="white"/>
<path fill-rule="evenodd" clip-rule="evenodd" d="M1447.5 879.146L1232.5 596.551L1017.5 879.146H1065.65L1232.5 659.838L1399.35 879.146H1447.5Z" fill="black"/>
<path opacity="0.9" fill-rule="evenodd" clip-rule="evenodd" d="M1073.75 771.849C1038.81 733.618 1017.5 682.724 1017.5 626.852C1017.5 508.11 1113.76 411.852 1232.5 411.852C1351.24 411.852 1447.5 508.11 1447.5 626.852C1447.5 682.725 1426.19 733.62 1391.25 771.851L1370.84 745.033C1398.03 713.24 1414.45 671.963 1414.45 626.852C1414.45 526.365 1332.99 444.904 1232.5 444.904C1132.01 444.904 1050.55 526.365 1050.55 626.852C1050.55 671.962 1066.97 713.238 1094.15 745.031L1073.75 771.849Z" fill="black"/>
</svg>
