<svg width="2466" height="1223" viewBox="0 0 2466 1223" fill="none" xmlns="http://www.w3.org/2000/svg">
<rect width="2465" height="1223" transform="translate(0.5)" fill="black"/>
<path fill-rule="evenodd" clip-rule="evenodd" d="M1448 879.146L1233 596.551L1018 879.146H1066.15L1233 659.838L1399.85 879.146H1448Z" fill="white"/>
<path opacity="0.9" fill-rule="evenodd" clip-rule="evenodd" d="M1074.25 771.849C1039.31 733.618 1018 682.724 1018 626.852C1018 508.11 1114.26 411.852 1233 411.852C1351.74 411.852 1448 508.11 1448 626.852C1448 682.725 1426.69 733.62 1391.75 771.851L1371.34 745.033C1398.53 713.24 1414.95 671.963 1414.95 626.852C1414.95 526.365 1333.49 444.904 1233 444.904C1132.51 444.904 1051.05 526.365 1051.05 626.852C1051.05 671.962 1067.47 713.238 1094.65 745.031L1074.25 771.849Z" fill="white"/>
</svg>
