<?xml version="1.0" standalone="no"?>
<!DOCTYPE svg PUBLIC "-//W3C//DTD SVG 20010904//EN"
 "http://www.w3.org/TR/2001/REC-SVG-20010904/DTD/svg10.dtd">
<svg version="1.0" xmlns="http://www.w3.org/2000/svg"
 width="1060.000000pt" height="1060.000000pt" viewBox="0 0 1060.000000 1060.000000"
 preserveAspectRatio="xMidYMid meet">
<metadata>
Created by potrace 1.14, written by Peter Selinger 2001-2017
</metadata>
<g transform="translate(0.000000,1060.000000) scale(0.100000,-0.100000)"
fill="#000000" stroke="none">
<path d="M5146 10402 c-2 -1 -21 -3 -42 -4 -21 0 -45 -6 -53 -12 -11 -8 -13
-8 -7 2 6 9 0 11 -21 8 -15 -3 -57 -7 -93 -10 -80 -6 -157 -15 -190 -22 -14
-4 -43 -8 -65 -10 -50 -4 -103 -11 -135 -19 -14 -3 -41 -8 -60 -11 -19 -3 -37
-7 -40 -9 -3 -2 -23 -6 -45 -9 -22 -4 -85 -18 -140 -31 -119 -30 -172 -43
-188 -44 -5 -1 -6 -4 -4 -8 3 -5 -11 -9 -31 -9 -20 -1 -38 -7 -40 -13 -2 -6
-7 -9 -11 -6 -5 2 -40 -6 -80 -19 -39 -13 -71 -21 -71 -17 0 3 -4 1 -8 -4 -4
-6 -38 -21 -77 -34 -38 -13 -88 -32 -109 -43 -22 -10 -43 -18 -47 -18 -4 0
-29 -10 -56 -22 -26 -12 -51 -21 -55 -20 -5 1 -8 -3 -8 -10 0 -6 -3 -9 -6 -5
-4 3 -21 -1 -38 -10 -17 -10 -35 -17 -39 -18 -4 0 -11 -4 -15 -10 -4 -5 -15
-11 -25 -13 -10 -2 -57 -24 -105 -49 -48 -25 -114 -60 -147 -77 -33 -16 -63
-35 -67 -41 -5 -6 -8 -6 -8 0 0 6 -4 5 -8 -1 -4 -7 -29 -24 -57 -39 -27 -15
-64 -38 -82 -51 -17 -13 -35 -24 -38 -24 -7 0 -98 -61 -105 -70 -3 -4 -20 -15
-37 -24 -18 -9 -33 -21 -33 -27 0 -6 -4 -8 -8 -5 -4 3 -26 -12 -48 -31 -21
-20 -40 -35 -41 -32 0 2 -15 -8 -32 -23 -17 -16 -34 -28 -38 -28 -5 0 -31 -21
-58 -47 -28 -25 -50 -44 -50 -42 0 2 -13 -6 -29 -18 -15 -12 -25 -27 -21 -32
3 -6 0 -8 -8 -5 -9 3 -22 -4 -31 -18 -9 -12 -16 -19 -16 -15 0 4 -28 -20 -61
-53 -34 -33 -64 -60 -66 -60 -2 0 -24 -20 -49 -45 -28 -27 -43 -49 -38 -56 4
-8 3 -9 -5 -5 -12 8 -151 -127 -151 -147 0 -6 -3 -8 -6 -4 -7 7 -54 -46 -54
-60 0 -5 -11 -16 -25 -23 -14 -7 -23 -15 -21 -17 2 -2 -7 -16 -20 -30 -14 -15
-35 -40 -47 -56 -12 -16 -32 -40 -44 -53 -13 -12 -23 -28 -23 -34 0 -5 -4 -10
-10 -10 -5 0 -10 -4 -10 -10 0 -5 -9 -20 -19 -32 -11 -13 -30 -34 -41 -48 -26
-30 -239 -351 -266 -400 -10 -19 -25 -43 -32 -52 -8 -9 -11 -22 -6 -29 4 -7 3
-10 -3 -6 -8 5 -43 -51 -43 -68 1 -3 -6 -13 -15 -21 -8 -9 -13 -20 -10 -25 4
-5 2 -9 -2 -9 -5 0 -21 -26 -36 -57 -15 -32 -32 -65 -37 -73 -10 -17 -22 -53
-20 -59 1 -2 -2 -7 -7 -10 -13 -9 -111 -236 -102 -236 1 0 -4 -11 -11 -25 -8
-14 -15 -27 -15 -30 -1 -3 -8 -18 -15 -35 -7 -16 -15 -37 -17 -45 -6 -25 -18
-57 -38 -110 -1 -3 -6 -20 -10 -37 -4 -18 -11 -33 -16 -33 -5 0 -8 -3 -7 -7 4
-15 -14 -88 -24 -100 -6 -7 -8 -13 -4 -13 3 0 1 -12 -5 -27 -6 -16 -12 -35
-14 -43 -2 -8 -10 -41 -18 -72 -8 -32 -13 -58 -10 -58 3 0 0 -6 -6 -13 -6 -8
-13 -31 -15 -53 -2 -21 -6 -46 -10 -54 -3 -8 -8 -28 -10 -45 -2 -16 -6 -37 -9
-45 -7 -17 -16 -74 -23 -134 -2 -22 -9 -45 -15 -52 -7 -8 -7 -14 1 -19 6 -3 7
-11 4 -17 -4 -6 -8 -23 -10 -37 -1 -14 -3 -26 -4 -26 -1 0 -3 -16 -5 -35 -1
-19 -6 -69 -10 -110 -4 -41 -8 -92 -9 -112 -1 -21 -5 -38 -11 -38 -5 0 -4 -5
2 -11 7 -7 8 -21 3 -39 -5 -18 -4 -32 3 -39 8 -8 8 -11 0 -11 -11 0 -11 -450
-1 -495 3 -11 2 -30 -3 -42 -5 -13 -4 -25 1 -28 5 -3 8 -13 8 -23 -1 -16 7
-96 19 -207 3 -27 5 -60 6 -72 1 -13 4 -23 8 -23 3 0 6 -8 6 -17 -1 -22 17
-151 22 -163 2 -3 4 -14 6 -25 6 -35 15 -80 18 -95 2 -8 7 -36 12 -62 4 -27
10 -48 14 -48 4 0 7 -10 8 -22 2 -30 10 -69 27 -121 8 -23 18 -58 22 -77 11
-51 47 -165 64 -205 8 -17 17 -45 27 -80 12 -45 29 -85 36 -85 5 0 6 -4 2 -9
-3 -5 1 -15 8 -23 8 -7 13 -21 11 -31 -1 -9 2 -17 7 -17 5 0 8 -3 7 -7 -1 -5
6 -25 15 -47 9 -21 17 -40 17 -42 0 -4 97 -213 109 -235 5 -9 29 -54 52 -100
23 -46 45 -86 48 -89 3 -3 15 -23 27 -45 27 -52 48 -89 54 -95 10 -10 31 -45
36 -62 4 -10 11 -18 16 -18 5 0 7 -4 4 -9 -4 -5 -3 -11 2 -13 4 -1 32 -40 62
-85 30 -46 58 -83 63 -83 4 0 5 -5 2 -10 -3 -6 1 -13 9 -16 9 -3 16 -11 16
-18 0 -6 10 -24 23 -39 12 -16 36 -45 52 -66 17 -21 41 -53 55 -71 14 -18 31
-39 37 -46 7 -7 13 -15 13 -17 0 -4 36 -45 113 -129 20 -23 37 -45 37 -50 0
-4 7 -8 17 -8 9 0 14 3 10 6 -3 3 4 17 16 30 12 12 27 29 32 36 6 7 31 41 57
74 26 34 44 64 41 68 -3 3 -2 6 4 6 9 0 56 55 93 110 8 12 21 28 28 36 6 7 12
15 12 19 0 3 11 17 24 30 14 14 33 38 42 55 10 16 22 30 26 30 4 0 8 4 8 9 0
6 11 22 25 37 28 30 26 37 -27 96 -18 20 -42 49 -53 64 -21 29 -66 85 -75 94
-3 3 -9 13 -15 22 -18 31 -106 157 -118 170 -7 8 -13 20 -15 28 -2 8 -12 23
-23 32 -11 9 -20 19 -19 22 1 18 -2 25 -20 46 -11 13 -20 29 -20 37 0 7 -3 13
-7 13 -5 0 -19 24 -33 53 -14 28 -27 54 -30 57 -12 12 -50 93 -50 106 0 8 -3
14 -7 14 -5 0 -14 12 -21 28 -20 41 -129 297 -137 322 -1 3 -7 19 -15 35 -7
17 -14 39 -16 50 -1 11 -12 45 -24 75 -11 30 -22 66 -25 79 -2 13 -8 27 -12
30 -4 3 -9 13 -9 21 -5 53 -25 120 -36 120 -5 0 -6 4 -3 10 3 5 1 28 -5 50 -6
23 -13 54 -15 70 -2 16 -6 34 -10 40 -3 5 -8 24 -10 42 -2 18 -7 47 -10 63 -4
17 -8 44 -10 60 -2 17 -4 30 -5 30 -2 0 -10 46 -15 85 -2 19 -4 35 -5 35 -2 0
-10 97 -12 143 -1 17 -6 32 -11 32 -5 0 -4 6 2 14 9 10 9 16 1 21 -8 5 -8 11
1 21 6 8 7 14 2 14 -5 0 -9 36 -9 81 1 44 -2 83 -6 85 -4 3 -3 16 2 29 5 13 6
26 2 29 -4 2 -5 43 -2 91 3 48 2 89 -3 92 -4 2 -3 12 1 21 5 9 8 33 7 52 -1
19 2 45 7 57 4 13 3 25 -3 28 -5 4 -6 12 -2 18 6 11 13 65 16 130 1 15 4 27 7
27 3 0 5 15 5 33 1 17 4 52 8 77 5 25 10 59 12 75 7 49 17 109 22 130 3 11 6
29 8 40 2 11 4 21 5 23 2 1 3 5 4 10 1 4 8 30 15 58 7 29 14 60 16 70 2 11 4
19 5 19 1 0 3 7 5 15 13 62 39 147 48 159 7 8 11 16 9 18 -2 2 7 36 19 76 13
39 22 75 21 80 -1 4 3 7 9 7 7 0 9 9 6 21 -3 11 0 22 7 25 7 3 13 10 13 17 0
7 12 38 26 70 15 32 27 59 27 61 0 2 14 35 32 73 17 37 32 70 33 73 3 11 50
105 55 110 17 17 69 134 64 142 -4 7 -2 8 5 4 8 -5 16 3 24 23 6 17 15 31 19
31 4 0 8 6 8 14 0 8 6 21 13 28 20 21 48 68 40 68 -4 0 2 7 13 15 10 8 15 15
11 15 -4 0 4 12 18 27 14 15 25 33 25 39 0 6 9 19 20 29 11 10 20 24 20 32 0
7 3 13 8 13 4 0 21 20 37 45 17 24 33 45 38 45 4 0 7 5 7 10 0 6 8 18 18 29 9
10 27 31 39 47 59 79 250 291 327 363 21 20 60 57 88 83 27 25 64 59 83 74 19
15 32 32 28 37 -3 6 -1 7 4 4 6 -4 22 3 36 16 41 36 72 61 101 82 15 11 42 32
59 47 18 15 36 28 40 28 5 0 14 6 21 13 8 6 24 19 36 27 12 8 40 27 61 43 21
15 44 27 50 27 6 0 9 6 6 14 -4 10 0 12 14 9 10 -3 19 0 19 6 0 6 7 11 15 11
9 0 18 7 21 15 4 8 9 13 14 10 4 -2 16 3 26 13 11 9 26 18 34 20 8 2 17 7 20
10 3 4 31 20 63 36 31 16 57 34 57 39 0 6 2 8 5 5 4 -3 53 18 110 47 57 30
106 51 109 48 3 -4 6 -1 6 5 0 7 9 12 20 12 11 0 20 4 20 8 0 5 6 9 13 9 6 0
35 11 62 23 28 13 57 24 65 26 8 2 16 8 18 14 2 5 8 8 13 5 5 -4 23 1 41 9 18
8 62 24 98 36 36 12 74 26 85 30 22 10 65 23 80 25 6 1 16 3 23 3 7 1 11 5 9
10 -3 4 9 8 26 9 29 1 63 7 77 14 3 1 10 3 15 4 6 2 12 4 15 5 3 1 16 4 30 7
40 8 55 11 55 13 0 2 31 7 73 12 6 1 12 4 12 7 0 3 12 7 28 8 42 3 97 11 97
13 0 1 11 4 25 5 39 6 112 16 145 20 36 5 138 16 180 19 17 1 36 5 43 9 6 5
12 4 12 -2 0 -5 11 -7 28 -3 15 4 65 7 112 7 47 0 88 5 92 10 5 7 8 7 8 0 0
-6 50 -10 131 -10 72 0 136 -3 142 -7 6 -4 19 -2 29 3 10 5 18 6 18 1 0 -4 10
-8 23 -9 42 -2 152 -12 152 -14 0 -1 25 -3 55 -5 30 -1 55 -3 55 -4 0 -2 9 -4
20 -6 11 -2 43 -8 70 -13 28 -5 53 -7 58 -4 4 2 7 0 7 -4 0 -5 12 -10 28 -11
29 -3 67 -9 67 -12 0 -1 14 -4 30 -6 17 -3 45 -9 62 -15 18 -6 37 -8 42 -5 5
4 11 2 13 -3 1 -6 14 -12 28 -14 14 -3 45 -10 70 -17 25 -7 50 -13 55 -15 6
-1 23 -7 38 -14 16 -6 33 -9 38 -5 5 3 9 1 9 -4 0 -8 101 -40 109 -34 2 2 7
-1 11 -8 4 -6 13 -13 21 -14 20 -4 51 -16 72 -27 10 -5 22 -7 26 -4 5 2 14 -2
21 -10 7 -8 19 -15 26 -15 8 0 22 -4 32 -9 53 -28 187 -86 194 -83 4 1 8 -2 8
-7 0 -9 58 -35 73 -32 4 0 7 -3 7 -8 0 -5 15 -14 33 -22 17 -7 43 -21 56 -31
13 -10 27 -15 32 -12 5 3 9 0 9 -5 0 -6 4 -11 9 -11 5 0 45 -23 88 -50 43 -28
85 -53 93 -57 8 -4 17 -9 20 -13 3 -3 33 -23 67 -45 35 -22 63 -43 63 -47 0
-5 5 -8 10 -8 6 0 32 -17 59 -37 27 -21 61 -47 75 -57 27 -20 47 -36 98 -82
15 -13 30 -24 32 -24 4 0 103 -89 162 -147 23 -23 45 -39 48 -35 3 3 6 0 6 -7
0 -16 26 -42 34 -34 3 4 6 2 6 -4 0 -6 33 -45 73 -86 89 -93 107 -114 107
-128 0 -5 5 -7 10 -4 6 3 10 2 10 -3 0 -4 13 -24 30 -43 48 -56 50 -58 50 -62
0 -5 38 -51 77 -93 12 -13 19 -24 15 -24 -4 -1 4 -10 18 -21 14 -12 23 -23 20
-25 -3 -2 3 -13 13 -24 9 -11 17 -25 17 -30 0 -6 5 -10 10 -10 6 0 10 -7 10
-15 0 -8 5 -15 10 -15 6 0 10 -6 10 -14 0 -8 4 -16 8 -18 5 -1 37 -50 72 -108
34 -58 67 -107 72 -108 4 -2 6 -7 3 -12 -3 -5 1 -14 7 -22 7 -7 24 -35 38 -63
14 -27 28 -51 33 -53 4 -2 7 -9 7 -16 0 -18 24 -66 33 -66 4 0 7 -8 7 -17 0
-10 8 -32 19 -49 10 -17 22 -41 26 -55 4 -13 15 -33 24 -43 9 -11 10 -16 4
-12 -9 5 -8 -2 2 -21 20 -40 39 -85 75 -188 17 -49 36 -98 41 -107 5 -10 9
-26 9 -36 0 -10 3 -22 7 -26 4 -3 8 -16 10 -28 2 -12 8 -27 14 -35 6 -7 9 -13
6 -13 -2 0 4 -33 15 -72 11 -40 21 -83 23 -95 2 -12 6 -27 10 -33 4 -6 9 -24
10 -38 6 -49 13 -87 20 -112 3 -14 7 -34 9 -45 2 -11 6 -39 10 -63 19 -107 29
-189 41 -337 8 -95 16 -263 14 -300 0 -16 -1 -36 0 -42 2 -29 2 -39 -2 -58 -2
-11 0 -26 6 -32 6 -8 6 -13 0 -13 -5 0 -10 -15 -10 -32 0 -62 -13 -243 -19
-273 -3 -16 -7 -48 -8 -70 -1 -22 -5 -45 -9 -52 -4 -6 -2 -15 4 -19 8 -4 8 -9
1 -13 -6 -4 -14 -29 -18 -56 -3 -28 -8 -59 -10 -70 -2 -11 -7 -33 -10 -50 -3
-16 -7 -34 -8 -40 -25 -105 -30 -132 -31 -140 0 -5 -4 -13 -10 -17 -6 -5 -4
-8 5 -8 11 0 12 -3 3 -8 -6 -4 -14 -19 -17 -32 -6 -31 -44 -160 -52 -180 -4
-8 -8 -25 -10 -36 -1 -12 -10 -36 -18 -53 -9 -17 -13 -31 -9 -31 4 0 2 -5 -5
-12 -7 -7 -12 -18 -12 -24 0 -7 -5 -25 -12 -41 -6 -15 -12 -31 -13 -35 -2 -5
-4 -11 -5 -15 -1 -5 -2 -11 -1 -16 0 -4 -3 -7 -9 -7 -5 0 -12 -16 -16 -35 -3
-19 -10 -35 -15 -35 -5 0 -8 -3 -7 -7 2 -12 -9 -37 -68 -161 -30 -62 -52 -118
-48 -124 4 -6 3 -8 -2 -5 -9 5 -29 -27 -95 -153 -13 -25 -27 -47 -31 -48 -5
-2 -8 -10 -8 -18 0 -8 -4 -14 -9 -14 -5 0 -11 -8 -15 -17 -5 -18 -26 -54 -36
-63 -3 -3 -21 -30 -40 -60 -19 -30 -39 -58 -45 -62 -5 -4 -6 -8 -1 -8 5 0 -1
-8 -12 -19 -12 -10 -22 -22 -22 -27 0 -5 -14 -23 -30 -41 -17 -18 -30 -36 -30
-42 0 -5 -3 -11 -8 -13 -18 -8 -83 -98 -77 -107 3 -6 0 -8 -9 -5 -9 3 -17 -2
-21 -15 -3 -12 -11 -21 -16 -21 -15 0 -11 -18 9 -38 9 -10 30 -37 46 -60 16
-24 36 -47 45 -52 9 -5 12 -10 8 -10 -5 0 -2 -6 5 -14 7 -7 20 -24 28 -36 8
-12 23 -32 32 -43 22 -27 23 -29 78 -102 25 -33 50 -66 55 -73 6 -7 18 -22 28
-33 9 -10 17 -23 17 -29 0 -5 3 -10 8 -10 4 0 18 -18 32 -40 13 -22 30 -42 36
-44 11 -4 84 65 84 79 0 3 10 16 23 28 32 32 119 137 113 137 -3 0 5 11 17 24
41 43 62 71 92 116 17 25 38 54 48 64 9 11 18 23 18 28 1 4 2 12 3 17 0 5 5
13 10 18 6 5 6 2 1 -7 -5 -8 -5 -12 -2 -9 12 10 157 240 157 248 0 5 7 14 15
21 8 7 13 16 10 20 -3 5 -2 10 2 12 13 5 53 66 53 81 0 7 4 17 9 23 18 17 110
202 104 208 -4 3 -2 6 4 6 11 0 40 59 35 73 -1 4 2 7 8 7 5 0 10 4 10 9 0 5 5
22 12 38 6 15 11 31 10 36 -1 4 2 7 8 7 5 0 10 8 10 18 0 9 7 26 15 36 8 10
12 22 10 27 -3 4 -1 10 5 14 5 3 10 15 10 26 0 10 4 19 8 19 5 0 9 6 9 13 0 6
10 36 22 64 11 29 17 53 13 53 -4 0 -1 4 6 9 8 5 15 20 15 35 1 14 6 26 11 26
4 0 6 9 3 20 -3 11 -2 18 3 15 7 -4 21 30 18 45 0 3 7 22 16 44 9 21 13 42 10
47 -3 5 -1 9 4 9 5 0 9 6 10 13 1 20 10 56 17 67 7 11 15 52 18 83 1 9 4 17 7
17 4 0 7 6 7 13 0 6 11 55 23 107 12 52 23 106 25 120 7 45 16 83 21 92 3 4
-1 8 -8 8 -9 0 -10 2 -2 8 12 7 22 51 29 132 6 54 12 87 20 99 3 5 0 13 -6 17
-7 4 -8 9 -1 13 26 16 46 588 29 846 -11 153 -22 284 -27 295 -1 3 -2 13 -1
23 1 9 -1 17 -6 17 -4 0 -8 17 -8 38 -1 35 -12 122 -21 166 -3 12 -7 37 -10
56 -3 19 -8 42 -11 50 -3 8 -7 24 -8 36 -2 11 -8 38 -14 60 -5 21 -12 50 -15
64 -9 51 -66 259 -86 315 -4 11 -13 38 -19 60 -7 22 -16 49 -21 60 -12 29 -55
149 -55 155 0 3 -3 10 -7 15 -3 6 -21 48 -39 95 -18 47 -37 87 -41 88 -4 2 -8
11 -8 19 0 8 -8 32 -19 52 -10 20 -38 74 -61 121 -102 203 -173 329 -191 341
-8 5 -11 9 -6 9 8 0 -49 93 -115 190 -21 30 -44 63 -51 73 -26 40 -126 173
-142 191 -5 6 -22 27 -36 46 -15 19 -37 46 -48 60 -12 14 -39 45 -59 69 -20
23 -49 56 -64 71 -16 16 -28 30 -28 33 0 5 -239 247 -244 247 -1 0 -23 19 -48
43 -87 83 -149 137 -157 137 -5 0 -11 7 -15 15 -3 8 -10 15 -16 15 -6 0 -21
11 -34 25 -13 14 -26 25 -30 25 -4 0 -17 9 -29 20 -39 36 -109 90 -116 90 -3
0 -18 10 -32 23 -26 23 -55 43 -78 54 -7 3 -25 16 -38 29 -14 13 -29 21 -33
19 -4 -3 -10 2 -14 10 -3 8 -12 15 -21 15 -8 0 -15 4 -15 8 0 9 -40 30 -53 28
-5 0 -13 7 -18 17 -6 9 -14 15 -20 12 -5 -4 -9 -2 -9 4 0 5 -9 13 -20 16 -11
3 -26 12 -32 19 -7 6 -29 20 -48 30 -19 9 -44 23 -55 30 -38 23 -185 96 -191
95 -4 0 -10 3 -13 8 -9 12 -83 48 -93 45 -4 -1 -8 2 -8 8 0 6 -3 9 -7 8 -5 -1
-18 3 -29 10 -12 6 -24 8 -28 5 -3 -3 -6 -1 -6 5 0 7 -5 12 -10 12 -6 0 -29 9
-51 19 -21 11 -36 14 -33 8 3 -7 -1 -4 -10 7 -8 10 -19 15 -25 11 -6 -3 -11
-2 -11 3 0 5 -19 14 -42 21 -24 7 -61 20 -83 30 -38 17 -128 50 -150 55 -5 2
-37 11 -70 21 -33 11 -62 19 -65 20 -3 0 -11 4 -18 9 -7 4 -16 5 -19 2 -3 -3
-11 -2 -18 4 -10 9 -90 31 -176 49 -19 4 -42 11 -49 16 -9 6 -11 4 -5 -6 7
-11 6 -12 -6 -2 -12 9 -96 30 -199 49 -14 3 -36 7 -50 10 -14 2 -45 7 -70 10
-25 3 -58 8 -75 11 -16 3 -50 7 -75 9 -46 5 -70 8 -149 19 -24 3 -89 8 -145
11 -55 2 -112 6 -126 7 -14 2 -31 -1 -37 -6 -8 -6 -18 -5 -27 2 -10 9 -16 9
-21 1 -4 -7 -11 -8 -18 -2 -16 13 -158 12 -150 -1 4 -6 1 -7 -8 -1 -13 7 -117
13 -123 6z"/>
<path d="M5284 6292 c-38 -49 -79 -102 -91 -118 -68 -92 -396 -522 -411 -540
-9 -12 -24 -32 -32 -44 -8 -12 -19 -28 -25 -34 -5 -6 -23 -29 -39 -51 -17 -22
-32 -42 -36 -45 -3 -3 -32 -41 -65 -85 -32 -44 -67 -89 -77 -99 -10 -11 -18
-23 -18 -27 0 -4 -7 -14 -15 -22 -8 -8 -85 -109 -172 -223 -86 -115 -162 -214
-167 -221 -19 -22 -31 -37 -56 -73 -13 -19 -27 -37 -30 -40 -3 -3 -48 -61
-100 -130 -52 -69 -98 -129 -102 -135 -5 -5 -27 -35 -49 -65 -22 -30 -48 -64
-57 -75 -9 -11 -37 -47 -62 -80 -25 -33 -48 -61 -52 -63 -5 -2 -8 -10 -8 -17
0 -7 -4 -15 -8 -17 -4 -1 -58 -70 -120 -151 -62 -81 -117 -153 -122 -160 -6
-7 -34 -43 -62 -82 -29 -38 -56 -74 -60 -80 -56 -71 -99 -127 -123 -160 -16
-22 -31 -42 -34 -45 -4 -3 -75 -97 -160 -210 -85 -113 -158 -206 -163 -208 -4
-2 -8 -10 -8 -17 0 -8 -6 -18 -12 -22 -7 -4 -67 -80 -133 -168 -66 -88 -130
-171 -142 -185 -13 -14 -23 -28 -23 -31 0 -3 -8 -15 -18 -27 -35 -42 -48 -59
-102 -132 -30 -41 -57 -77 -60 -80 -3 -3 -41 -52 -85 -110 -44 -58 -83 -109
-87 -115 -64 -83 -190 -250 -212 -280 -17 -22 -33 -42 -36 -45 -3 -3 -17 -21
-30 -40 -13 -19 -27 -37 -30 -40 -3 -3 -25 -32 -49 -65 -25 -33 -47 -62 -50
-65 -4 -3 -26 -32 -50 -65 -25 -33 -48 -61 -53 -63 -4 -2 -8 -8 -8 -14 0 -5
-6 -15 -12 -23 -7 -7 -65 -81 -128 -165 -128 -168 -325 -427 -343 -450 -7 -8
-23 -31 -37 -50 -13 -19 -27 -37 -30 -40 -8 -6 -219 -283 -240 -314 -8 -12
-37 -50 -63 -84 -27 -34 -46 -65 -44 -70 5 -7 1034 -9 1040 -1 9 11 208 272
262 344 33 44 62 82 65 85 5 4 73 94 239 315 25 33 50 65 56 71 5 6 17 21 25
34 8 12 86 115 173 228 87 114 180 236 207 272 28 36 99 130 160 210 60 80
118 156 129 170 57 74 108 141 126 166 11 15 29 39 41 53 11 14 56 73 99 131
44 58 82 107 85 110 3 3 44 57 90 120 47 63 95 125 108 139 12 13 22 28 22 32
0 4 11 19 25 33 14 14 25 28 25 31 0 4 6 12 13 19 6 7 21 25 32 40 26 36 98
130 105 136 3 3 10 12 15 21 14 23 196 263 204 269 4 3 31 39 61 80 30 41 57
77 60 80 3 3 61 79 130 170 68 91 128 170 132 175 5 6 49 63 98 128 110 146
132 175 145 190 6 7 44 57 85 112 41 55 77 102 80 105 3 3 32 41 64 85 33 44
62 82 65 85 3 3 40 50 80 105 41 55 78 102 83 103 4 2 8 8 8 13 0 6 10 20 21
32 12 12 29 33 38 47 19 31 172 230 176 230 3 0 207 -267 220 -289 6 -9 12
-18 16 -21 3 -3 75 -97 160 -209 84 -111 188 -247 229 -301 41 -53 145 -189
230 -301 85 -112 158 -208 163 -214 4 -5 71 -93 148 -195 76 -102 145 -192
152 -200 6 -9 68 -90 137 -180 68 -91 128 -166 132 -168 4 -2 8 -10 8 -17 0
-7 4 -15 8 -17 4 -1 40 -46 80 -98 39 -52 80 -106 91 -120 11 -14 53 -70 95
-125 41 -55 79 -104 83 -110 5 -5 22 -28 38 -50 17 -22 35 -46 42 -55 7 -8 32
-42 57 -75 25 -33 49 -64 54 -70 20 -25 198 -259 207 -273 11 -17 35 -49 50
-66 6 -6 30 -38 55 -71 25 -33 50 -65 55 -71 6 -7 19 -24 30 -40 11 -15 45
-60 75 -100 30 -40 62 -82 70 -95 8 -12 24 -31 35 -43 11 -12 31 -37 45 -56
13 -19 28 -39 32 -45 9 -10 117 -152 316 -415 64 -85 122 -162 129 -170 7 -8
26 -33 42 -55 17 -22 34 -45 38 -50 5 -6 28 -37 53 -70 25 -33 47 -62 50 -65
3 -3 17 -21 30 -40 13 -19 27 -37 30 -40 3 -3 19 -23 36 -45 16 -22 35 -46 41
-55 7 -8 26 -33 42 -54 l29 -40 521 0 c287 -1 521 0 521 2 0 6 -23 47 -30 52
-3 3 -64 82 -135 175 -71 94 -133 175 -137 180 -5 6 -27 35 -49 65 -23 30 -52
69 -65 85 -32 41 -251 330 -337 445 -40 52 -74 97 -77 100 -3 3 -39 50 -80
105 -41 55 -77 102 -80 105 -3 3 -53 68 -110 145 -58 77 -108 145 -112 150 -5
6 -24 28 -43 50 -19 22 -35 45 -35 52 0 6 -3 13 -8 15 -4 2 -23 23 -42 48 -19
25 -39 50 -45 56 -5 6 -17 22 -25 34 -8 12 -19 28 -25 34 -5 6 -64 83 -130
171 -66 88 -124 165 -130 171 -5 6 -17 22 -25 34 -8 12 -20 28 -25 34 -6 6
-82 106 -170 221 -88 116 -163 215 -167 220 -4 6 -28 36 -53 67 -25 31 -45 60
-45 63 0 4 -7 13 -15 21 -15 16 -146 185 -180 234 -21 30 -106 141 -115 150
-3 3 -25 32 -49 65 -25 33 -48 62 -53 63 -4 2 -8 9 -8 15 0 7 -10 23 -23 37
-13 14 -86 108 -162 210 -77 102 -142 187 -145 190 -3 3 -29 37 -57 75 -29 39
-56 75 -61 80 -9 11 -139 182 -308 405 -61 80 -133 174 -160 208 -27 35 -53
71 -59 80 -5 9 -16 23 -23 30 -7 8 -38 49 -69 91 -31 42 -59 78 -63 81 -3 3
-17 21 -30 40 -13 19 -49 67 -80 106 -30 39 -64 83 -75 98 -19 27 -61 83 -88
116 -7 9 -34 45 -62 80 -27 36 -53 67 -57 68 -5 2 -8 8 -8 13 0 6 -24 40 -53
77 -49 63 -192 249 -387 507 -45 61 -88 116 -95 123 -10 11 -25 -3 -81 -76z"/>
</g>
</svg>
